<?xml version="1.0" standalone="no"?>
<!DOCTYPE svg PUBLIC "-//W3C//DTD SVG 1.1//EN" "http://www.w3.org/Graphics/SVG/1.1/DTD/svg11.dtd" >
<svg xmlns="http://www.w3.org/2000/svg">
<metadata>
Created by FontForge 20120731 at Wed Nov 25 10:34:53 2015
 By Ads
</metadata>
<defs>
<font id="moocwechat" horiz-adv-x="1024" >
  <font-face 
    font-family="moocwechat"
    font-weight="500"
    font-stretch="normal"
    units-per-em="1024"
    panose-1="2 0 6 3 0 0 0 0 0 0"
    ascent="896"
    descent="-128"
    x-height="792"
    bbox="0 -223.75 1214 893"
    underline-thickness="50"
    underline-position="-100"
    unicode-range="U+0078-E65C"
  />
<missing-glyph horiz-adv-x="374" 
d="M34 0v682h272v-682h-272zM68 34h204v614h-204v-614z" />
    <glyph glyph-name=".notdef" horiz-adv-x="374" 
d="M34 0v682h272v-682h-272zM68 34h204v614h-204v-614z" />
    <glyph glyph-name=".null" horiz-adv-x="0" 
 />
    <glyph glyph-name="nonmarkingreturn" horiz-adv-x="341" 
 />
    <glyph glyph-name="x" unicode="x" horiz-adv-x="1001" 
d="M281 543q-27 -1 -53 -1h-83q-18 0 -36.5 -6t-32.5 -18.5t-23 -32t-9 -45.5v-76h912v41q0 16 -0.5 30t-0.5 18q0 13 -5 29t-17 29.5t-31.5 22.5t-49.5 9h-133v-97h-438v97zM955 310v-52q0 -23 0.5 -52t0.5 -58t-10.5 -47.5t-26 -30t-33 -16t-31.5 -4.5q-14 -1 -29.5 -0.5
t-29.5 0.5h-32l-45 128h-439l-44 -128h-29h-34q-20 0 -45 1q-25 0 -41 9.5t-25.5 23t-13.5 29.5t-4 30v167h911zM163 247q-12 0 -21 -8.5t-9 -21.5t9 -21.5t21 -8.5q13 0 22 8.5t9 21.5t-9 21.5t-22 8.5zM316 123q-8 -26 -14 -48q-5 -19 -10.5 -37t-7.5 -25t-3 -15t1 -14.5
t9.5 -10.5t21.5 -4h37h67h81h80h64h36q23 0 34 12t2 38q-5 13 -9.5 30.5t-9.5 34.5q-5 19 -11 39h-368zM336 498v228q0 11 2.5 23t10 21.5t20.5 15.5t34 6h188q31 0 51.5 -14.5t20.5 -52.5v-227h-327z" />
    <glyph glyph-name="uniE600" unicode="&#xe600;" 
d="M512 812q-139 0 -257 -68.5t-186.5 -186.5t-68.5 -257t68.5 -257t186.5 -186.5t257 -68.5t257 68.5t186.5 186.5t68.5 257t-68.5 257t-186.5 186.5t-257 68.5zM512 764q192 0 328 -136t136 -328q0 -170 -110 -300q-29 70 -81.5 123t-123.5 83t-149 30q-118 0 -214 -65
t-140 -171q-110 130 -110 300q0 192 136 328t328 136zM195 -39q35 101 121.5 164t195.5 63t196 -63t121 -164q-63 -59 -145 -92t-172 -33t-172 33t-145 92zM512 266q80 0 136 56t56 135.5t-56 136t-136 56.5q-52 0 -96.5 -26t-70 -70t-25.5 -96q0 -80 56 -136t136 -56z
M512 602q60 0 102 -42.5t42 -101.5q0 -39 -19.5 -72.5t-52.5 -52.5t-72 -19q-60 0 -102 42t-42 101.5t42 102t102 42.5z" />
    <glyph glyph-name="uniE601" unicode="&#xe601;" 
d="M757 774h-454h-3t-9.5 -1.5t-13 -3.5t-14 -7t-12.5 -12t-9 -18t-4 -25v-814q1 -1 0 -7t2 -16.5t8.5 -20t19 -16.5t32.5 -7h460h2q2 0 6.5 0.5t8.5 1.5t9.5 3t10.5 5t10 8t8.5 11.5t6 15.5t2.5 19v817v7q-1 7 -4 16.5t-9.5 19.5t-20.5 17t-33 7zM465 741h130v-32h-130v32z
M416 741q3 0 6 -1t5.5 -3t3.5 -5.5t1 -6.5q0 -7 -4.5 -11.5t-11.5 -4.5q-3 0 -6 1t-5.5 3.5t-3.5 5.5t-1 6q0 7 4.5 11.5t11.5 4.5zM530 -109q-13 0 -22.5 9.5t-9.5 23t9.5 23.5t22.5 10q9 0 16.5 -4.5t12 -12t4.5 -16.5q0 -23 -22 -31q-6 -2 -11 -2zM760 22h-459v654h459
v-654zM760 22z" />
    <glyph glyph-name="uniE602" unicode="&#xe602;" 
d="M607 -212q-6 0 -11.5 2t-10.5 6l-201 159q-3 3 -5.5 6t-4 6.5t-2.5 7.5t-1 8v339q0 1 -1 3l-319 318q-2 3 -3 4q-9 10 -15.5 21t-9.5 22.5t-3 24.5q0 26 13 48.5t35.5 35.5t48.5 13h790q40 0 68.5 -28.5t28.5 -68.5q0 -39 -27 -67l-1 -1l-2 -2l-330 -331q-2 -1 -2 -3
v-488q0 -7 -2.5 -13t-7 -11t-10.5 -8q-2 -1 -4 -1l-6 -2h-5zM442 0l130 -104v415q0 5 0.5 10t2 10t3 9.5t4 8.5t5.5 8t7 7l329 330l3 3q2 2 3 4t2 4.5t1.5 5t0.5 4.5q0 11 -7.5 18.5t-18.5 7.5h-790q-11 0 -18.5 -7.5t-7.5 -18.5q0 -5 2 -9.5t5 -8.5l2 -2q1 -1 3 -4
l317 -317q22 -21 22 -52v-322z" />
    <glyph glyph-name="uniE603" unicode="&#xe603;" 
d="M949 -138q-10 -9 -25.5 -12t-24.5 4l-230 229q-95 -76 -228 -76q-44 0 -86 9.5t-79 28t-69.5 43.5t-58.5 57t-44.5 68.5t-28 78t-9.5 84.5q0 75 29.5 143.5t79.5 118t119.5 78.5t146 29t146 -29t119.5 -78.5t80 -118t30 -143.5q0 -48 -10 -90t-30 -79.5t-50 -70.5
l227 -229q8 -9 6 -22.5t-10 -22.5zM441 688q-87 0 -160 -41.5t-115.5 -113.5t-42.5 -157q0 -129 93 -220.5t225 -91.5q86 0 159 41.5t115.5 113.5t42.5 157q0 129 -93 220.5t-224 91.5z" />
    <glyph glyph-name="uniE604" unicode="&#xe604;" 
d="M920 -216h-816q-39 0 -66.5 27.5t-27.5 66.5v722q0 39 27.5 67t66.5 28h125v-63h-157v-785h880v785h-157v63h125q39 0 66.5 -28t27.5 -67v-722q0 -15 -4.5 -29.5t-13.5 -26t-20.5 -20.5t-25.5 -13.5t-30 -4.5v0zM669 412h126v-94h-126v94zM795 4h-126v94h126v-94z
M669 255h126v-94h-126v94zM716 538q-19 0 -33 13.5t-14 33.5v157q0 19 14 33t33.5 14t33 -14t13.5 -33v-157q0 -5 -1 -9.5t-2.5 -9t-4 -8t-6 -7t-7 -6t-8 -4t-9 -2.5t-9.5 -1v0zM449 412h126v-94h-126v94zM575 4h-126v94h126v-94zM449 255h126v-94h-126v94zM386 695h252v-63
h-252v63zM229 98h126v-94h-126v94zM229 255h126v-94h-126v94zM229 412h126v-94h-126v94zM308 538q-20 0 -33.5 13.5t-13.5 33.5v157q0 19 13.5 33t33 14t33.5 -14t14 -33v-157q0 -20 -14 -33.5t-33 -13.5v0zM308 538z" />
    <glyph glyph-name="uniE605" unicode="&#xe605;" 
d="M960 -20q0 -53 -37.5 -90.5t-90.5 -37.5h-640q-53 0 -90.5 37.5t-37.5 90.5v640q0 53 37.5 90.5t90.5 37.5h640q53 0 90.5 -37.5t37.5 -90.5v-640zM442 -20q96 186 204 346q37 54 83.5 111.5t74.5 87.5l28 31l-19 64q-14 -10 -37 -28t-82.5 -70t-105 -100.5t-90 -107.5
t-66.5 -94l-22 -35l-154 147l-64 -70z" />
    <glyph glyph-name="uniE606" unicode="&#xe606;" 
d="M832 652q14 0 23 -9t9 -23v-640q0 -14 -9 -23t-23 -9h-640q-14 0 -23 9t-9 23v640q0 14 9 23t23 9h640zM832 748h-640q-53 0 -90.5 -37.5t-37.5 -90.5v-640q0 -53 37.5 -90.5t90.5 -37.5h640q53 0 90.5 37.5t37.5 90.5v640q0 53 -37.5 90.5t-90.5 37.5z" />
    <glyph glyph-name="uniE607" unicode="&#xe607;" 
d="M523 -15q-21 0 -36 -15t-15 -36.5t15 -36.5t36 -15t36 15t15 37q0 13 -6.5 25t-18.5 19t-26 7zM776 790h-506q-32 0 -54.5 -22.5t-22.5 -54.5v-850q0 -32 22.5 -54.5t54.5 -22.5h506q32 0 54.5 22.5t22.5 54.5v850q0 32 -22.5 54.5t-54.5 22.5zM270 739h506q7 0 13 -3.5
t9.5 -9.5t3.5 -13v-637h-558v637q0 10 7.5 18t18.5 8zM776 -163h-506q-5 0 -10 2.5t-8.5 5.5t-5.5 8t-2 10v157h558v-157q0 -5 -2 -10t-5.5 -8t-8.5 -5.5t-10 -2.5z" />
    <glyph glyph-name="uniE608" unicode="&#xe608;" 
d="M896 672h-768q-53 0 -90.5 -37.5t-37.5 -90.5v-512q0 -53 37.5 -90.5t90.5 -37.5h768q53 0 90.5 37.5t37.5 90.5v512q0 53 -37.5 90.5t-90.5 37.5zM896 608q6 0 18 -4l-379 -374q-9 -10 -23 -10t-23 10l-381 374q4 1 6.5 2t6.5 1.5t7 0.5h768zM960 32q0 -26 -19 -45
t-45 -19h-768q-26 0 -45 19t-19 45v512q0 3 1 8q1 2 1 3l378 -371q7 -7 15 -12t16.5 -8.5t18 -5.5t18.5 -2q40 0 68 28l377 374q1 -2 1 -4l2 -6v-4v-512z" />
    <glyph glyph-name="uniE609" unicode="&#xe609;" 
d="M898 681l-4 4q-61 62 -149 62t-150 -62l-191 -191q-62 -62 -62 -150t62 -150l3 -3q5 -5 10.5 -9.5t11.5 -9.5l70 70l-6 4l-6 4q-3 2 -5 4l-6 6l-3 3q-34 34 -34 81.5t34 80.5l191 191q33 34 80.5 34t81.5 -34l3 -3q34 -34 34 -81.5t-34 -81.5l-86 -86l6 -16q3 -8 5 -16
t4 -16.5t3 -17t2 -16.5t1 -16v-18l134 134q62 62 62 150t-62 149v0zM616 406q-10 10 -22 19l-70 -70q13 -7 23 -17l4 -4q33 -33 33 -81t-33 -81l-191 -191q-34 -34 -81.5 -34t-80.5 34l-4 3q-17 17 -25.5 38.5t-8.5 43t8.5 43t25.5 38.5l86 86q-22 56 -21 116l-134 -134
q-62 -61 -62 -149t62 -150l4 -4q62 -62 150 -62t149 62l191 191q31 31 46.5 70.5t15.5 79.5t-15.5 79.5t-46.5 70.5l-3 3v0zM616 406z" />
    <glyph glyph-name="uniE60A" unicode="&#xe60a;" horiz-adv-x="1214" 
d="M1157 -212h-1100q-24 0 -40.5 16.5t-16.5 40.5v910q0 16 7.5 29t20.5 20.5t29 7.5q23 0 40 -16.5t17 -40.5v-720v-133h1043q23 0 40 -17t17 -40q0 -16 -8 -29t-21 -20.5t-28 -7.5zM1024 -41h-114q-23 0 -40 16.5t-17 40.5v398q0 23 17 40t40 17h114q24 0 40.5 -17
t16.5 -40v-398q0 -8 -2 -15.5t-6 -13.5t-9 -11.5t-11.5 -9t-13.5 -5.5t-15 -2zM702 -41h-114q-24 0 -40.5 16.5t-16.5 40.5v625q0 6 1 11.5t3.5 11t5.5 10t6.5 8t8.5 7t10 5.5t10.5 3t11.5 1h114q15 0 28 -7.5t21 -20.5t8 -29v-625q0 -24 -17 -40.5t-40 -16.5zM379 -41h-114
q-23 0 -39.5 16.5t-16.5 40.5v113q0 24 16.5 40.5t39.5 16.5h114q12 0 22.5 -4.5t18 -12t12 -18t4.5 -22.5v-113q0 -24 -16.5 -40.5t-40.5 -16.5z" />
    <glyph glyph-name="uniE60B" unicode="&#xe60b;" 
d="M842 400q-1 -14 -3 -29q-18 -126 -107.5 -208t-209.5 -82h-51l-10 -10q18 -33 45 -57.5t61 -38t71 -13.5h51l102 -107q11 -10 25 -10q4 0 7 0.5t6 1.5q6 2 11 7t7.5 11.5t2.5 13.5v87q72 14 118.5 75t46.5 141q0 54 -22.5 101t-62.5 78t-88 39v0zM441 324h-229
q-8 0 -13.5 6t-5.5 14q0 6 2.5 10.5t7 7.5t9.5 3h229q4 0 8 -2t6.5 -4.5t4 -6.5t1.5 -8q0 -2 -0.5 -4.5t-1.5 -4.5t-3 -3l-2 -4l-4 -2t-4 -1.5t-5 -0.5zM212 514h382q8 0 13.5 -6t5.5 -15q0 -5 -2.5 -10t-7 -7.5t-9.5 -2.5h-382q-8 0 -13.5 6t-5.5 14q0 9 5.5 15t13.5 6z
M790 378q-15 -108 -91 -178t-177 -70h-72l-141 -147q-2 -2 -4.5 -4t-5.5 -3.5t-6 -2.5t-6 -1.5t-7 -0.5q-7 0 -14 3q-25 10 -25 37v123q-64 12 -115 53t-80.5 103t-29.5 133q0 79 36.5 147t99 107t136.5 39h234q32 0 62.5 -7.5t57 -22t50.5 -34.5t42.5 -45.5t31.5 -54.5
t20.5 -62t7.5 -67v-11l-2 -10q0 -6 -0.5 -12t-1.5 -12z" />
    <glyph glyph-name="uniE60C" unicode="&#xe60c;" 
d="M481 573q0 53 -48.5 89.5t-108.5 36.5h-314v-785h282q159 3 189 -46v35q-2 50 0 105v565zM1014 699h-314q-60 0 -108.5 -36.5t-48.5 -89.5v-564q1 -65 0 -105v-36q30 50 189 47h282v784z" />
    <glyph glyph-name="uniE60D" unicode="&#xe60d;" 
d="M516 -217q-81 0 -157.5 25.5t-137.5 71.5t-107.5 107.5t-71.5 137.5t-25 158q0 101 39.5 194t106.5 159.5t159.5 106t193.5 39.5q82 0 158 -25t137.5 -71t107.5 -107.5t71.5 -138t25.5 -157.5q0 -102 -39.5 -194.5t-106.5 -159.5t-159.5 -106.5t-194.5 -39.5zM516 736
q-92 0 -176 -35.5t-144.5 -96.5t-96.5 -145t-36 -176t36 -176t96.5 -145t144.5 -97t176.5 -36t176.5 36t144.5 97t96.5 145t36 176q0 74 -23 143t-65 125t-97.5 98t-125 64.5t-143.5 22.5zM541 30q-5 -4 -8.5 -7t-7 -4.5t-6 -2t-5.5 0t-4.5 1t-4 2.5t-4 3t-4 4t-3.5 3
l-200 201q-16 16 -12.5 30.5t18 15.5t28.5 -10l166 -175v431q0 23 12 32t23.5 -0.5t11.5 -31.5v-431l166 175q13 13 29.5 11.5t19.5 -14.5t-15 -33z" />
    <glyph glyph-name="uniE60E" unicode="&#xe60e;" 
d="M867 -77h-709q-4 -1 -9.5 -3.5t-14 -11.5t-8.5 -20q0 -12 8 -20.5t16 -11.5l8 -3h709q4 0 9 1t13.5 10t8.5 24q-1 26 -31 35zM511 625h6q24 2 40.5 19.5t16.5 41.5q0 26 -18 44t-43 18t-43 -18t-18 -44q0 -12 4.5 -23t12.5 -19.5t19 -13.5t23 -5zM802 394h-223v135
q-1 2 -1 6t-3.5 13.5t-9.5 16.5t-18.5 13t-29.5 7l-6 -1q-14 -1 -25.5 -7t-17 -14t-8.5 -15.5t-4 -13.5l-1 -5v-135h-234l290 -354z" />
    <glyph glyph-name="uniE60F" unicode="&#xe60f;" 
d="M249 266l479 -480q7 -6 16.5 -8.5t18.5 0t16 8.5q10 11 10 25.5t-10 25.5l-456 456l448 448q11 10 11 24.5t-10.5 24.5t-24.5 10t-25 -10l-465 -466q-1 0 -4 -6l-2 -1l-2 -1q-10 -10 -10 -25t10 -25z" />
    <glyph glyph-name="uniE610" unicode="&#xe610;" 
d="M513 -20q-22 0 -37 -15.5t-15 -37t15 -36.5t37 -15q14 0 25.5 7t18.5 19t7 26q0 8 -2.5 16t-7.5 14.5t-11 11t-14 7.5t-16 3zM769 795h-513q-21 0 -39 -10.5t-28.5 -28.5t-10.5 -39v-860q0 -33 23 -56t55 -23h513q32 0 55 23t23 56v860q0 32 -23 55t-55 23zM256 743h513
q11 0 18.5 -7.5t7.5 -18.5v-645h-565v645q0 11 7.5 18.5t18.5 7.5v0zM769 -169h-513q-11 0 -18.5 7.5t-7.5 18.5v159h565v-159q0 -11 -7.5 -18.5t-18.5 -7.5v0zM769 -169zM424 429l-29 -27l-13 13q-5 6 -8 11.5t-4 10.5v14l14 150l31 29l24 -29zM572 423l26 -28l-34 -27
h-114h-12q-11 0 -18 7l-18 19l32 29h138zM614 188l-30 -27l-25 27l15 171l30 27l26 -27zM635 429l-30 -27l-24 28l14 170l31 30l25 -30zM635 429z" />
    <glyph glyph-name="uniE611" unicode="&#xe611;" 
d="M512 -208q-103 0 -197 40.5t-162 108.5t-108.5 162t-40.5 197t40.5 197t108.5 162t162 108.5t197 40.5q42 0 82.5 -7t78 -19.5t73 -30.5t66.5 -41t59 -51t51 -59t41 -66.5t30.5 -73t19.5 -78t7 -82.5q0 -46 -8.5 -91t-24 -86t-37.5 -79t-50 -71t-61 -61t-71 -50
t-79 -37.5t-86 -24t-91 -8.5zM783 469q0 28 -13.5 51.5t-37 37t-51.5 13.5h-338q-21 0 -39.5 -8t-32.5 -22t-22 -32.5t-8 -39.5v-338q0 -42 30 -72t72 -30h338q28 0 51.5 13.5t37 37t13.5 51.5v338zM681 143h-338q-7 0 -13.5 2.5t-11 7t-7 11t-2.5 13t2.5 13t7 11t11 7
t13.5 2.5h338q14 0 24 -9.5t10 -23.5t-10 -24t-24 -10zM681 232h-338q-7 0 -13.5 3t-11 7.5t-7 10.5t-2.5 13q0 9 4.5 17t12.5 12.5t17 4.5h338q7 0 13.5 -2.5t11 -7t7 -11t2.5 -13.5q0 -14 -10 -24t-24 -10zM681 323h-135q-14 0 -24 9.5t-10 23.5q0 6 1.5 11t5 9.5t7.5 7.5
t9 4.5t11 1.5h135q14 0 24 -10t10 -24t-10 -23.5t-24 -9.5zM681 435h-135q-9 0 -17 4.5t-12.5 12.5t-4.5 17t4.5 17t12.5 12.5t17 4.5h135q14 0 24 -10t10 -24t-10 -24t-24 -10zM309 503l157 -90l-157 -90v180z" />
    <glyph glyph-name="uniE612" unicode="&#xe612;" 
d="M512 -208q-103 0 -197 40.5t-162 108.5t-108.5 162t-40.5 197t40.5 197t108.5 162t162 108.5t197 40.5t197 -40.5t162 -108.5t108.5 -162t40.5 -197t-40.5 -197t-108.5 -162t-162 -108.5t-197 -40.5zM321 300l-72 -72q-30 -30 -30 -72t30 -71l48 -48q29 -30 71.5 -30
t71.5 30l72 72q23 23 28 55t-8 60l-92 -92l-24 -23q-20 -20 -48 -20t-47.5 19.5t-19.5 47.5t20 48l24 24l91 92q-19 8 -39.5 9t-40.5 -6.5t-35 -22.5zM608 348q10 10 10 24t-10 24q-3 2 -5.5 4t-5.5 3t-6.5 2t-6.5 1t-6.5 -1t-6.5 -2t-6 -3t-5 -4l-144 -144q-10 -10 -10 -24
t10 -24t24 -10t24 10zM775 515l-48 48q-29 30 -71 30t-72 -30l-72 -72q-23 -23 -28 -55t9 -60l91 92l24 23q20 20 48 20t47 -20q10 -9 15 -22t5 -25.5t-5 -25.5t-15 -22l-23 -24l-92 -91q11 -6 23.5 -8.5t24.5 -2t24 4t23 10t20 15.5l72 72q30 30 30 72t-30 71z" />
    <glyph glyph-name="uniE613" unicode="&#xe613;" 
d="M512 -208q-103 0 -197 40.5t-162 108.5t-108.5 162t-40.5 197t40.5 197t108.5 162t162 108.5t197 40.5q42 0 82.5 -7t78 -19.5t73 -30.5t66.5 -41t59 -51t51 -59t41 -66.5t30.5 -73t19.5 -78t7 -82.5q0 -187 -122 -329q-116 -136 -290 -170q-48 -9 -96 -9zM582 64
q13 -13 32 -8q18 -5 31 8l120 120q10 10 10 24t-10 23.5t-24 9.5t-24 -10l-70 -69v206q0 14 -9.5 24t-23.5 10q-7 0 -13.5 -3t-11 -7.5t-7 -10.5t-2.5 -13v-206l-70 69q-10 10 -24 10t-24 -9.5t-10 -23.5t10 -24zM275 97h178l-39 39q-6 6 -11 13t-9 16h-119q-7 0 -13 -3
t-10.5 -7.5t-7.5 -10.5t-3 -13q0 -9 4.5 -17t12.5 -12.5t17 -4.5zM275 232h113q2 9 5.5 17t9 16t12 14.5t14 11.5t16.5 9h-170q-9 0 -17 -4.5t-12.5 -12.5t-4.5 -17q0 -14 10 -24t24 -10zM275 368h237q0 38 26 67h-263q-9 0 -17 -4.5t-12.5 -12t-4.5 -17t4.5 -17t12.5 -12
t17 -4.5zM749 571h-474q-14 0 -24 -10t-10 -24t10 -24t24 -10h474q5 0 10.5 1.5t9.5 5t7 7.5t5 9t2 11q0 9 -4.5 17t-12.5 12.5t-17 4.5zM749 435h-60q26 -29 26 -67h34q14 0 24 9.5t10 24t-10 24t-24 9.5z" />
    <glyph glyph-name="uniE614" unicode="&#xe614;" 
d="M512 -208q-103 0 -197 40.5t-162 108.5t-108.5 162t-40.5 197t40.5 197t108.5 162t162 108.5t197 40.5q42 0 82.5 -7t78 -19.5t73 -30.5t66.5 -41t59 -51t51 -59t41 -66.5t30.5 -73t19.5 -78t7 -82.5q0 -46 -8.5 -91t-24 -86t-37.5 -79t-50 -71t-61 -61t-71 -50
t-79 -37.5t-86 -24t-91 -8.5zM783 503q0 18 -9 34t-25 25t-34 9h-406q-9 0 -18 -2.5t-16.5 -7t-13.5 -10.5t-10.5 -13.5t-7 -16.5t-2.5 -18v-271q0 -28 20 -47.5t48 -19.5h179v-68h-103q-14 0 -24 -10t-10 -24t10 -24t24 -10h274q9 0 16.5 4.5t12 12.5t4.5 17q0 14 -9.5 24
t-23.5 10h-103v68h159q28 0 48 19.5t20 47.5v271zM560 333l-70 -52q-19 -15 -46 -15v204q27 0 46 -15l70 -52q20 -14 20 -34.5t-20 -35.5z" />
    <glyph glyph-name="uniE615" unicode="&#xe615;" 
d="M512 -208q-103 0 -197 40.5t-162 108.5t-108.5 162t-40.5 197t40.5 197t108.5 162t162 108.5t197 40.5q83 0 160.5 -26t139.5 -73t109 -109t73 -139.5t26 -160.5t-26 -160.5t-73 -139.5t-109 -109t-139.5 -73t-160.5 -26zM377 571h-23q-28 0 -48 -20t-20 -48v-406
q0 -18 9.5 -34t25 -25t33.5 -9h23v542zM760 503q0 28 -19.5 48t-48.5 20h-45v-271l-68 68l-67 -68v271h-92v-542h272q29 0 48.5 20t19.5 48v406z" />
    <glyph glyph-name="uniE616" unicode="&#xe616;" 
d="M512 -208q-103 0 -197 40.5t-162 108.5t-108.5 162t-40.5 197t40.5 197t108.5 162t162 108.5t197 40.5t197 -40.5t162 -108.5t108.5 -162t40.5 -197q0 -187 -122 -329q-116 -136 -290 -170q-48 -9 -96 -9zM817 435q0 28 -20 48t-48 20h-440q-14 0 -26.5 -5.5t-21.5 -14.5
t-14.5 -21.5t-5.5 -26.5v-237q0 -13 5.5 -25.5t14.5 -22t21.5 -14.5t26.5 -5h68v-136l169 136h203q28 0 48 19.5t20 47.5v237zM664 266q-21 0 -35.5 15t-14.5 36t14.5 36t35.5 15t36 -15t15 -36t-15 -36t-36 -15zM529 266q-7 0 -13.5 2t-12 5t-10.5 8t-8 10.5t-5 12t-2 13.5
q0 21 15 36t36 15t36 -15t15 -36q0 -14 -7 -25.5t-18.5 -18.5t-25.5 -7zM394 266q-21 0 -36 15t-15 36t15 36t36 15t35.5 -15t14.5 -36t-14.5 -36t-35.5 -15z" />
    <glyph glyph-name="uniE617" unicode="&#xe617;" 
d="M512 -208q-103 0 -197 40.5t-162 108.5t-108.5 162t-40.5 197t40.5 197t108.5 162t162 108.5t197 40.5t197 -40.5t162 -108.5t108.5 -162t40.5 -197t-40.5 -197t-108.5 -162t-162 -108.5t-197 -40.5zM783 503q0 28 -20 48t-48 20h-406q-14 0 -26.5 -5.5t-21.5 -14.5
t-14.5 -21.5t-5.5 -26.5v-406q0 -28 20 -48t48 -20h406q18 0 34 9t25 25t9 34v406zM681 210h-338q-5 0 -9.5 1t-8 3.5t-6.5 5.5t-5.5 6.5t-3.5 8t-1 9.5q0 7 2.5 13t7 10.5t11 7t13.5 2.5h338q14 0 24 -9.5t10 -23.5q0 -10 -4.5 -17.5t-12.5 -12t-17 -4.5zM681 323h-338
q-7 0 -13.5 2.5t-11 7t-7 11t-2.5 12.5q0 10 4.5 17.5t12.5 12t17 4.5h338q14 0 24 -10t10 -24t-10 -23.5t-24 -9.5zM681 435h-159q-14 0 -24 10t-10 24t10 24t24 10h159q14 0 24 -10t10 -24t-10 -24t-24 -10zM410 435h-67q-14 0 -24 10t-10 24t10 24t24 10h67q14 0 24 -10
t10 -24q0 -9 -4.5 -17t-12 -12.5t-17.5 -4.5z" />
    <glyph glyph-name="uniE618" unicode="&#xe618;" 
d="M512 -208q-103 0 -197 40.5t-162 108.5t-108.5 162t-40.5 197t40.5 197t108.5 162t162 108.5t197 40.5q83 0 160.5 -26t139.5 -73t109 -109t73 -139.5t26 -160.5q0 -103 -40.5 -197t-108.5 -162t-162 -108.5t-197 -40.5zM613 29h135q14 0 24 10t10 24t-10 24t-24 10h-135
q-9 0 -17 -4.5t-12.5 -12.5t-4.5 -17q0 -24 23 -32q6 -2 11 -2zM760 503q0 28 -19.5 48t-47.5 20h-408q-29 0 -48.5 -20t-19.5 -48v-338q0 -14 5.5 -26.5t14.5 -21.5t21.5 -14.5t26.5 -5.5h272v124l-7 7l-8 -6l-124 154l-122 -122l-23 24l135 135l12 13l13 -14l120 -149l4 5
v9q0 28 20 48t48 20h135v158zM727 323h-114q-7 0 -13 -2.5t-10.5 -7t-7.5 -11t-3 -13t3 -13t7.5 -11t10.5 -7t13 -2.5h114q14 0 23.5 9.5t9.5 23.5t-9.5 24t-23.5 10zM795 210h-182q-7 0 -13 -2.5t-10.5 -7t-7.5 -11t-3 -12.5q0 -10 4.5 -17.5t12.5 -12t17 -4.5h182
q9 0 17 4.5t12.5 12t4.5 17.5q0 4 -1 7.5t-2.5 7t-4 6.5t-5.5 5l-6 4q-3 2 -7 2.5t-8 0.5zM557 424q0 23 16.5 39.5t40.5 16.5q15 0 28 -7.5t20.5 -20.5t7.5 -28q0 -23 -16.5 -39.5t-40 -16.5t-40 16.5t-16.5 39.5z" />
    <glyph glyph-name="uniE619" unicode="&#xe619;" 
d="M512 -208q-103 0 -197 40.5t-162 108.5t-108.5 162t-40.5 197t40.5 197t108.5 162t162 108.5t197 40.5q59 0 116 -13.5t107 -38.5t94.5 -59.5t79 -79t59.5 -94.5t38.5 -107t13.5 -116q0 -187 -122 -329q-116 -136 -290 -170q-48 -9 -96 -9zM512 757q-93 0 -177.5 -36
t-146 -97.5t-97.5 -146t-36 -177.5t36 -177.5t97.5 -146t146 -97.5t177.5 -36t177.5 36t146 97.5t97.5 146t36 177.5q0 53 -12 104.5t-34.5 96.5t-54 84.5t-71 71t-84.5 54t-96.5 34.5t-104.5 12zM537 226v-104q0 -3 -0.5 -5.5t-1.5 -5t-3 -5t-4 -4t-4.5 -3t-5.5 -2t-6 -0.5
q-7 0 -13 3.5t-9 9t-3 12.5v127q0 5 2 10t5 8.5t8 5.5t10 2q63 0 107.5 44.5t44.5 107.5t-44.5 107.5t-107.5 44.5q-31 0 -59 -12t-48.5 -32.5t-32.5 -48.5t-12 -59q0 -25 9 -51h-53q-4 13 -5.5 25.5t-1.5 25.5q0 55 27 102t74 74t102 27q84 0 143.5 -59.5t59.5 -143.5
q0 -94 -71 -154q-47 -40 -107 -47zM512 46q8 0 16 -2.5t14 -7t11 -11t7.5 -14t2.5 -16.5q0 -21 -15 -35.5t-36 -14.5t-36 14.5t-15 35.5q0 11 4 20.5t11 16t16.5 10.5t19.5 4z" />
    <glyph glyph-name="uniE61A" unicode="&#xe61a;" 
d="M864 -99h-596q-33 0 -57 23.5t-24 57.5v730q0 34 24 58t57 24h352v-54h-324q-23 0 -39 -16t-16 -39v-676q0 -15 7.5 -27.5t20 -19.5t27.5 -7h541q22 0 38 15.5t16 38.5v433h54v-460q0 -34 -24 -57.5t-57 -23.5zM461 299q-4 -5 -10.5 -6t-13 1t-11.5 7q-8 8 -9 18.5
t6 17.5l464 464q7 7 17.5 6.5t18.5 -8.5t9 -18.5t-6 -17.5zM214 -153h433h81q6 0 12 0.5t12 2.5q-4 -12 -11.5 -22.5t-17.5 -18.5t-22.5 -12.5t-26.5 -4.5h-514q-22 0 -40.5 11t-29.5 30t-11 41v676q0 9 2 17.5t5 16t8 14t11 12t13 10t15 6.5v-103v-595v-27q0 -23 16 -38.5
t38 -15.5h27z" />
    <glyph glyph-name="uniE61B" unicode="&#xe61b;" 
d="M512 -208q-11 0 -19 8t-8 19v962q0 5 2.5 10t6 8.5t8.5 6t10 2.5q11 0 19 -8t8 -19v-962q0 -7 -3.5 -13t-10 -10t-13.5 -4zM993 273h-962q-7 0 -13 3.5t-10 10t-4 13.5q0 11 8 19t19 8h962q11 0 19 -8t8 -19q0 -20 -19 -26q-5 -1 -8 -1z" />
    <glyph glyph-name="uniE61C" unicode="&#xe61c;" 
d="M850 -208h-676q-28 0 -48 20t-20 48v880q0 28 20 48t48 20h535l209 -209v-739q0 -28 -20 -48t-48 -20zM632 469q-13 0 -25.5 -5t-21 -14t-14 -21t-5.5 -26v-2q0 -1 0.5 -3t0.5 -3l-197 -98q-19 18 -46 18t-46.5 -19t-19.5 -46.5t19.5 -47t46.5 -19.5t46 19l197 -99
q-1 -6 -1 -8q0 -18 9 -33t24 -24t33 -9q14 0 26 5.5t21 14t14 21t5 26t-5 25.5t-14 21t-21 14t-26 5q-9 0 -17 -2t-15.5 -6.5t-13.5 -9.5l-197 98q0 1 0.5 3t0.5 3v3q0 1 -1 7l197 99q10 -9 21.5 -14t24.5 -5q27 0 46.5 19.5t19.5 46.5q0 18 -9 33.5t-24 24t-33 8.5z
M681 774v-203h203z" />
    <glyph glyph-name="uniE61D" unicode="&#xe61d;" 
d="M608 -107h-192v1h-354v73q72 53 114 131.5t46 169.5h1v11v2v3v4q0 3 -0.5 5.5t-0.5 4.5q-2 77 1 129q4 73 7 89q3 13 7 25.5t10 24.5q5 11 9 16l2 4l1 3q26 43 67 73.5t90 42.5v4v5q0 39 28 67t68 28q20 0 37.5 -7.5t30.5 -20.5t20.5 -30.5t7.5 -36.5v-5v-3
q35 -9 66.5 -27.5t56 -44t41.5 -57.5t24 -68q4 -29 5 -114v-109v-2v0v-1v-15h1q4 -91 46 -169.5t114 -131.5v-73h-354v-1v0zM602 -141q-11 -29 -35.5 -48.5t-54.5 -19.5t-54.5 19.5t-35.5 48.5h180z" />
    <glyph glyph-name="uniE61E" unicode="&#xe61e;" 
d="M988 -4h-561l-184 -162h-1q-9 -8 -20 -8q-6 0 -12 2.5t-10 7t-6.5 10t-2.5 12.5v138h-155q-9 0 -16 4t-11.5 11.5t-4.5 15.5v715q0 9 4.5 16t11.5 11.5t16 4.5h952q13 0 22.5 -9.5t9.5 -22.5v-715q0 -13 -9.5 -22t-22.5 -9zM639 435h93q14 0 24 10t10 24q0 9 -4.5 17
t-12.5 12.5t-17 4.5h-81l18 102q3 14 -5.5 23.5t-22.5 9.5t-25.5 -9.5t-13.5 -23.5l-18 -102h-102l18 102q1 6 -0.5 12.5t-5 11t-9.5 7t-13 2.5q-14 0 -25.5 -9.5t-14.5 -23.5l-18 -102h-122q-5 0 -9 -1t-8 -3.5t-7 -5.5t-5 -6.5t-3.5 -8t-1.5 -9.5q0 -14 10 -24t24 -10h110
l-17 -101h-93q-14 0 -24 -10t-10 -24q0 -9 4.5 -17t12.5 -12.5t17 -4.5h81l-18 -101q-3 -14 5.5 -24t22.5 -10t25.5 10t13.5 24l18 101h102l-18 -101q-3 -14 5.5 -24t22.5 -10t25.5 10t14.5 24l18 101h122q14 0 24 10t10 24t-10 24t-24 10h-110zM452 334l18 101h102
l-18 -101h-102z" />
    <glyph glyph-name="uniE61F" unicode="&#xe61f;" 
d="M512 -208q-103 0 -197 40.5t-162 108.5t-108.5 162t-40.5 197q0 83 26 160.5t73 139.5t109 109t139.5 73t160.5 26q59 0 116 -13.5t107 -38.5t94.5 -59.5t79 -79t59.5 -94.5t38.5 -107t13.5 -116q0 -210 -149 -359t-359 -149zM918 334h-372v372q0 14 -10 24t-24 10
t-24 -10t-10 -24v-406q0 -14 10 -24t24 -10h406q14 0 24 10t10 24t-10 24t-24 10z" />
    <glyph glyph-name="uniE620" unicode="&#xe620;" 
d="M930 -211h-836q-12 0 -23 6.5t-17 17t-6 23.5v580q0 19 13.5 32.5t32.5 13.5h163v93q0 106 74.5 181t180.5 75t180.5 -75t74.5 -181v-93h163q19 0 32.5 -13.5t13.5 -32.5v-580q0 -13 -6 -23.5t-17 -17t-23 -6.5zM721 548q0 90 -61 153t-148 63t-148 -63t-61 -153v-78v-4
v-4h418v4v4v78zM930 416h-836v-580h836v580zM512 277q19 0 35 -9.5t25.5 -25.5t9.5 -35v-139q0 -14 -5.5 -27t-15 -22.5t-22.5 -15t-27 -5.5q-29 0 -49.5 20.5t-20.5 49.5v139q0 29 20.5 49.5t49.5 20.5zM489 68q0 -10 6.5 -16.5t16.5 -6.5t16.5 6.5t6.5 16.5v139
q0 6 -3 11.5t-8.5 8.5t-11.5 3t-11.5 -3t-8.5 -8.5t-3 -11.5v-139z" />
    <glyph glyph-name="uniE621" unicode="&#xe621;" 
d="M77 -208h-48q0 150 82.5 271t216.5 176q-24 17 -44 38.5t-36 46t-27 51.5t-17 57t-6 61q0 131 92 223t222 92q43 0 83.5 -11.5t75 -31.5t63.5 -49t49.5 -63.5t31.5 -75.5t11 -84q0 -15 -1.5 -30.5t-4.5 -30t-7 -29t-9.5 -28t-12.5 -27t-15 -25.5t-17 -23.5t-19 -22
t-21 -20t-23 -18.5q134 -55 216.5 -176t82.5 -271h-48h-870zM512 227q110 0 188 78t78 188.5t-78 188t-188 77.5q-72 0 -133.5 -35.5t-97 -96.5t-35.5 -134q0 -114 83 -193q78 -72 183 -73q-110 0 -205 -51t-155 -139.5t-72 -195.5h864q-18 164 -141.5 275t-290.5 111z" />
    <glyph glyph-name="uniE622" unicode="&#xe622;" 
d="M889 366q32 -18 32 -45t-32 -46l-624 -360q-32 -18 -55.5 -5t-23.5 51v720q0 37 23.5 50.5t55.5 -5.5z" />
    <glyph glyph-name="uniE623" unicode="&#xe623;" 
d="M512 -166q-95 0 -181 37q-84 35 -148.5 99.5t-99.5 148.5q-37 86 -37 181t37 181q35 84 99.5 148.5t148.5 99.5q86 37 181 37q47 0 92.5 -9t88.5 -28q84 -35 148.5 -99.5t99.5 -148.5q37 -86 37 -181q0 -16 -1 -31.5t-3 -31t-5 -30.5t-7 -30t-9.5 -29.5t-11.5 -28.5
q-35 -84 -99.5 -148.5t-148.5 -99.5q-43 -19 -88.5 -28t-92.5 -9zM512 712q-170 0 -291 -121t-121 -291t121 -291t291 -121t291 121t121 291t-121 291t-291 121z" />
    <glyph glyph-name="uniE624" unicode="&#xe624;" horiz-adv-x="1025" 
d="M512 812q-83 0 -161.5 -26t-141.5 -73t-110 -110t-73 -141.5t-26 -161.5t26 -161.5t73 -141.5t110 -110t141.5 -73t161.5 -26q104 0 199 40.5t163.5 109t109 163.5t40.5 199q0 212 -150 362t-362 150zM806 433l-331 -331h-1q-5 -6 -12 -9.5t-14.5 -4t-15 1t-14.5 5.5
q-2 1 -4.5 3t-4.5 4l-191 190q-13 14 -13 33t13.5 32.5t32.5 13.5t33 -13l158 -158l298 298q9 9 21 12.5t24 0t21 -12.5t12 -20.5t0 -23.5t-12 -21z" />
    <glyph glyph-name="uniE625" unicode="&#xe625;" 
d="M414 790l-62 -61l451 -438l-451 -438l62 -61l514 499z" />
    <glyph glyph-name="uniE626" unicode="&#xe626;" 
d="M512 808q-102 0 -194.5 -38.5t-164.5 -110.5q-135 -134 -148 -323q-1 -18 -1 -36q0 -102 38.5 -194.5t110.5 -164.5q28 -29 60.5 -52.5t68 -41.5t73 -30.5t77 -18.5t80.5 -6q51 0 100 9.5t94.5 28.5t87 47t77.5 64q72 72 110.5 164.5t38.5 194.5q0 68 -17 132
t-50.5 121.5t-81.5 105.5q-36 36 -77.5 64t-87 47t-94.5 28.5t-100 9.5zM826 -14q-20 -21 -43.5 -39t-48.5 -32.5t-52 -25.5t-54.5 -18.5t-56.5 -11.5t-59 -4q-89 0 -170 34t-144 97t-97 144t-34 170q0 59 15 115.5t44.5 107t71.5 91.5q63 63 144 97t170 34q59 0 115.5 -15
t107 -44.5t92 -71t71 -92t44.5 -107t15 -115.5q0 -89 -34 -170t-97 -144zM747 234l-203 87v328q0 14 -9.5 23t-22.5 9q-4 0 -8.5 -1t-8 -3t-6 -5t-5 -6.5t-3.5 -7.5t-1 -9v-349q0 -21 19 -29l223 -96q3 -1 6 -1.5t6 -0.5q21 0 30 19q3 9 2 17t-6 14.5t-13 10.5zM194 332h-31
q-14 0 -23 -9.5t-9 -22.5q0 -6 2.5 -12t6.5 -10.5t10 -7t13 -2.5h31q13 0 22.5 9.5t9.5 22.5q0 9 -4 16t-11.5 11.5t-16.5 4.5zM798 300q0 -6 2.5 -12t6.5 -10.5t10 -7t13 -2.5h31q14 0 23 9.5t9 22.5t-9 22.5t-23 9.5h-31q-14 0 -23 -9.5t-9 -22.5zM512 14q-13 0 -22.5 -9
t-9.5 -23v-31q0 -14 9.5 -23t22.5 -9q5 0 10 1.5t9 4.5t7 7t4.5 8.5t1.5 10.5v31q0 3 -0.5 5.5t-1.5 5t-2 4.5l-2 4l-4 4q-1 2 -3 3t-4.5 2.5t-4.5 2t-4.5 1t-5.5 0.5z" />
    <glyph glyph-name="uniE627" unicode="&#xe627;" 
d="M134 328q10 0 18 4.5t12.5 12.5t4.5 18q0 7 -2.5 13.5t-7.5 11t-11.5 7t-13.5 2.5h-1h-72q-1 0 -2.5 0.5t-3.5 0.5q-19 0 -32.5 -14t-13.5 -33v-505q0 -19 13.5 -32.5t32.5 -13.5h2h3h2h71h1v0h5v1q12 2 20 11.5t8 21.5q0 8 -3.5 15t-10 12t-14.5 6v1h-60l2 460h53z
M996 378q-32 53 -98 55q-4 1 -7 1l-233 1q25 74 25 146q0 49 -11 97l-1 4h-1q-10 42 -44 68t-77 26q-16 0 -31 -4.5t-28 -12.5t-23.5 -19.5t-17.5 -25.5t-11 -31t-4 -35v-4q-1 -5 0 -7q-3 -91 -67 -159t-158 -78l-4 -1l-1 -327v-272h17h4h589q28 0 58 20q29 19 45 50
q1 2 2 3.5t2 3.5t1.5 4t1.5 4l89 401q1 2 1.5 4.5t0.5 5.5v5q1 13 -1 26.5t-6.5 26.5t-11.5 24zM949 316l-1 -5h1l-96 -423q-4 -11 -13 -16q-6 -4 -14 -5h-1h-4h-551v467q32 15 55 27t50 30t46 37t37 46.5t30 59.5l1 4q7 20 11 39q6 36 6 69q-2 12 1 22t9 18q8 8 18 12.5
t19 4.5q19 -1 36.5 -21t17.5 -36q7 -53 7 -66q0 -36 -5 -62l-1 -3q-10 -53 -35 -100l-1 -4q-4 -8 -4 -18q0 -29 50 -29l286 -1h5v-1l6 1q10 0 18 -4.5t13 -12.5q8 -14 3 -30z" />
    <glyph glyph-name="uniE628" unicode="&#xe628;" 
d="M924 736h-824q-37 0 -63 -26t-26 -63v-605q0 -37 26 -63t63 -26h299l113 -113l113 113h299q37 0 63 26t26 63v605q0 37 -26 63t-63 26zM945 619v-549q0 -20 -14.5 -34t-33.5 -14h-305l-80 -80l-80 80h-305q-19 0 -33.5 14t-14.5 34v549q0 20 14.5 34t33.5 14h770
q13 0 24 -6.5t17.5 -17.5t6.5 -24zM265 416h518q13 0 22.5 9.5t9.5 23.5t-9.5 23.5t-22.5 9.5h-518q-14 0 -23 -9.5t-9 -23.5q0 -9 4 -16.5t11.5 -12t16.5 -4.5zM783 306h-518q-14 0 -23 -9.5t-9 -23.5q0 -9 4 -16.5t11.5 -12t16.5 -4.5h518q13 0 22.5 10t9.5 23
q0 9 -4 16.5t-11.5 12t-16.5 4.5z" />
    <glyph glyph-name="uniE629" unicode="&#xe629;" 
d="M737 745q-23 0 -45.5 -5.5t-41 -15t-37 -22.5t-32.5 -26.5t-27.5 -29t-22.5 -28t-17 -25.5q-12 19 -26 36.5t-36 39.5t-45 38t-54 27t-63 11q-77 0 -143 -42.5t-104.5 -115.5t-38.5 -160q0 -61 36 -137.5t87 -122.5q43 -57 131.5 -138.5t164.5 -139.5t92 -58
q12 0 60.5 35.5t107.5 85.5t121 110t95 103q52 47 88.5 124t36.5 138q0 52 -14.5 100.5t-41 87.5t-62 68.5t-79 45.5t-90.5 16zM956 427q0 -32 -14 -72.5t-38 -78t-52 -62.5q-2 -2 -4 -5q-56 -72 -154 -158t-179 -145q-46 34 -95 72.5t-124 107.5t-117 124l-4 4
q-42 38 -73 101t-31 112q0 104 64.5 177.5t154.5 73.5q29 0 58 -14.5t53.5 -38.5t45.5 -53.5t36 -61.5q9 -18 31 -18t30 18q33 68 85.5 118t107.5 50q91 0 155 -73.5t64 -177.5z" />
    <glyph glyph-name="uniE62A" unicode="&#xe62a;" 
d="M1014 627q0 14 -4 27.5t-10.5 25.5t-16.5 21.5t-21.5 16.5t-25.5 10.5t-28 3.5h-792q-44 0 -75 -31t-31 -74v-676q0 -44 31 -75t75 -31h792q44 0 75 31t31 75v81v1v594zM947 32v-76q0 -7 -2 -14t-6 -12.5t-9.5 -9.5t-12.5 -6.5t-14 -2.5h-782q-18 0 -31 13.5t-13 31.5
v666q0 18 13 31t31 13h782q9 0 17 -3.5t14 -9.5t9.5 -14t3.5 -17v-590v0zM787 422l-225 -249l-160 113q-2 2 -4 3t-4 2.5t-4 2t-4 1.5t-4 1h-6h-1h-2q-5 0 -9.5 -1t-9 -3.5t-7.5 -6.5l-162 -215q-10 -10 -10 -25t10.5 -25.5t24.5 -10.5q5 0 9.5 1.5t9 4t8.5 6.5l145 193
l159 -112q10 -11 27 -11q15 0 25 11l245 270q5 5 8 11.5t3 13.5q0 3 -0.5 6t-1.5 5.5t-2.5 5t-3 4.5t-3.5 4q-10 11 -25.5 11t-25.5 -11v0zM347 361q38 0 65.5 26.5t27.5 64.5q0 25 -12.5 46.5t-34 33.5t-46.5 12q-19 0 -36 -7t-29.5 -19.5t-19.5 -29.5t-7 -36
q0 -24 12 -45.5t33.5 -33.5t46.5 -12zM347 479q11 0 19 -7.5t8 -19t-8 -19.5t-19 -8t-19 8t-8 19.5t8 19t19 7.5zM347 479z" />
    <glyph glyph-name="uniE62B" unicode="&#xe62b;" 
d="M512 795q-103 0 -197 -40t-162 -108t-108 -162t-40 -197t40 -197t108 -162t162 -108t197 -40t197 40t162 108t108 162t40 197t-40 197t-108 162t-162 108t-197 40zM780 57l-37 -37l-231 231l-231 -231l-37 37l231 231l-231 231l37 37l231 -231l231 231l37 -37l-231 -231z
" />
    <glyph glyph-name="uniE62C" unicode="&#xe62c;" 
d="M620 0q-15 0 -25.5 10.5t-10.5 25.5v396q0 15 10.5 25.5t25.5 10.5q7 0 14 -3t11.5 -8t7.5 -11.5t3 -13.5v-396q0 -15 -10.5 -25.5t-25.5 -10.5zM404 0q-15 0 -25.5 10.5t-10.5 25.5v396q0 15 10.5 25.5t25.5 10.5t25.5 -10.5t10.5 -25.5v-396q0 -15 -10.5 -25.5
t-25.5 -10.5zM979 612h-179v71q0 45 -31.5 76.5t-75.5 31.5h-361q-44 0 -76 -31.5t-32 -76.5v-71h-179q-10 0 -18.5 -5t-13 -13.5t-4.5 -17.5q0 -15 10.5 -25.5t25.5 -10.5h934q10 0 18.5 4.5t13 13t4.5 18.5q0 7 -2.5 13.5t-7.5 11.5t-11.5 8t-14.5 3zM296 683q0 5 1 9
t3 7.5t4.5 6.5t5.5 5.5t6.5 4.5t7.5 2.5t8 0.5h361q14 0 24.5 -10t10.5 -26v-71h-432v71zM764 -215h-504q-44 0 -75.5 31.5t-31.5 76.5v539q0 15 10.5 25.5t25 10.5t25 -10.5t10.5 -25.5v-539q0 -8 3 -14.5t8 -11.5t11.5 -7.5t13.5 -2.5h504q15 0 25.5 10.5t10.5 25.5v538
q0 15 10.5 25.5t25.5 10.5t25.5 -10.5t10.5 -25.5v-538q0 -45 -32 -76.5t-76 -31.5z" />
    <glyph glyph-name="uniE62D" unicode="&#xe62d;" 
d="M973 53h-922q-20 0 -34.5 14.5t-14.5 35.5v394q0 21 14.5 35.5t34.5 14.5h922q20 0 34.5 -14.5t14.5 -35.5v-394q0 -14 -6.5 -25.5t-18 -18t-24.5 -6.5zM1005 497q0 14 -9.5 23.5t-22.5 9.5h-922q-8 0 -16 -4.5t-12 -12t-4 -16.5v-394q0 -14 9.5 -23.5t22.5 -9.5h922
q13 0 22.5 9.5t9.5 23.5v394zM766 185q-28 24 -41 35q-14 -45 -102 -80q-1 2 -5 8q-5 5 -6 8q17 6 31 12t24.5 13t18 13.5t12.5 13.5q22 27 20 95v21h18v-19q1 -9 0.5 -16.5t-1 -14.5t-1 -13.5t-2 -12.5t-2.5 -11q16 -14 59 -48q13 -10 23 -17.5t16 -12.5l-13 -14
q-14 12 -49 40zM724 368h84v-158h-16v141h-129v-144h-18v161h61l11 47h-78v16h186v-16h-90zM586 186q3 -30 -36 -32h-22v2q0 1 -1 3q-1 9 -4 15q11 -2 26 -2q22 -1 20 18v216h-51v16h109v-16h-41v-220zM179 166h46v146h100v24h-140v14h140v18h17v-18h140v-14h-140v-24h101
v-146h47v-14h-311v14zM242 166h185v20h-185v-20zM242 201h185v23h-185v-23zM242 238h185v23h-185v-23zM242 274h185v24h-185v-24zM207 434h256v-57h-256v57zM382 389h64v33h-64v-33zM302 389h64v33h-64v-33zM222 389h65v33h-65v-33z" />
    <glyph glyph-name="uniE62E" unicode="&#xe62e;" 
d="M158 175v1l31 30l-31 31v1l31 31l-31 31l31 31l-31 31v1l31 31l-31 30v1h866v-250h-866zM402 353q-11 -17 -24 -31h-8v18h18v6h-18v21h-7v-21h-23v-6h23v-18h-30v-7h38q-8 -9 -18 -16h-7v-5q-3 -2 -7 -4.5t-8 -4.5q1 -1 2 -2.5t2 -3.5q1 0 1 -1q1 1 4 2l1 2q11 7 16 11
h28l-18 -17v-9q-4 0 -8.5 -1t-8.5 -2h-8q-4 -1 -7 -2l1 -7q6 1 16 2q3 1 6 1.5t5 1t4 0.5v-15q0 -3 -1 -5t-3 -2.5t-6 -0.5h-7h-6q0 -1 1 -4v-3h15q15 1 15 15v17q4 1 14 2q4 1 7 1.5t5 0.5q0 4 1 8q-4 -1 -14 -2q-4 -1 -7.5 -2t-5.5 -1v5l19 18v7h-30q3 3 6 5l6 6q3 2 5 5
h20v7h-14q5 4 10 11t11 16zM458 333h15v7h-48l8 26l-9 1q-9 -41 -26 -70q1 0 6 -5q6 10 10 21q6 -29 17 -46q-12 -17 -40 -32q4 -5 5 -7q27 15 39 32q3 -4 7 -8l7 -7q4 -4 9.5 -8t11.5 -8q2 4 5 8q-22 12 -35 30q5 7 9 17t6 22t3 27zM503 356h-8v-86h8v86zM531 309v59h-8
v-59q0 -31 -6 -46q-3 -8 -8.5 -15.5t-14.5 -14.5l6 -6q33 25 31 82zM630 359h-86v-7h38v-26h-33v-78h8v71h25v-91h8v91h25v-53q1 -9 -8 -9q-1 0 -3 0.5t-4 0.5h-4q0 -2 0.5 -3t0.5 -3v-2h11q16 0 15 16v60h-33v26h40v7zM686 337h-16v31h-8v-31h-18v-7h18v-36q-5 -1 -10 -2.5
t-10 -3.5l2 -8q2 1 10 4q5 2 8 2v-41q0 -4 -1.5 -5.5t-5.5 -1.5h-11q1 -5 1 -8h12q14 0 13 14v45q2 0 4 1l4 2q6 1 9 2v8q-9 -3 -17 -6v34h16v7zM746 359l-6 9l-7 -4q2 -3 4.5 -6.5t4.5 -7t4 -7.5l7 4q-2 3 -7 12zM784 245h-37v25h34v7h-34v25h34v7h-34v26h36v7h-74q1 1 2 3
l2 4l2 4q1 2 1.5 4t1.5 4t2 5l-8 2q-12 -33 -32 -55q6 -5 6 -6q1 2 2 3.5t2.5 3t2.5 3.5q2 3 4 5v-94h7v11h80v6zM801 269q1 -2 1.5 -2.5t0.5 -1.5q8 7 21 21v-58h8v68q9 11 16 23h89v8h-85l3 4q2 3 2 4l-8 2q-1 -2 -2.5 -4.5t-2.5 -5.5h-41v-8h37q-19 -29 -42 -47l2 -2z
M938 355h-38v13h-8v-13h-44v13h-8v-13h-39v-8h39v-10h8v10h44v-11h8v11h38v8zM938 272h-39v5l29 18v8h-74v-7h63l-26 -16v-8h-48v-7h48v-20q1 -9 -10 -8h-21q0 -1 1 -3q1 -4 1 -5q8 0 13.5 0.5t8.5 0.5q16 -1 15 15v20h39v7zM704 270h36v-25h-36v25zM704 302h36v-25h-36v25z
M704 333l1 2h35v-26h-36v24zM420 325q1 2 1 4l2 4h27q-2 -38 -15 -58q-10 18 -15 50z" />
    <glyph glyph-name="uniE62F" unicode="&#xe62f;" 
d="M158 175v1l31 30l-31 31v1l31 31l-31 31l31 31l-31 31v1l31 31l-31 30v1h866v-250h-866zM398 351l-12 -16q-6 -8 -12 -15h-9v18h19v7h-19v20h-7v-20h-23v-7h23v-18h-29v-6h38l-6 -6q-3 -3 -6 -5.5t-6 -4.5h-7v-5q-3 -3 -7 -5.5t-8 -4.5q2 -2 4 -5l1 -1h1q2 2 4 3
q5 4 9 6.5t6 4.5h29l-18 -16v-9q-19 -3 -32 -5l1 -8q5 1 16 3q5 1 8.5 2t6.5 1v-15q1 -9 -10 -9q-9 0 -13 1v-2q0 -1 1 -2v-4h14q16 2 16 16v16q4 1 14 3q4 0 7 1t5 1q0 4 1 8q-5 -1 -14 -3q-3 0 -5.5 -0.5t-4.5 -1t-3 -1.5v6l19 17v8h-30q5 3 9 7t8 9h20v6h-14q3 3 6.5 7
t7 9t7.5 11zM454 331h14v8h-47q2 6 4 12.5t3 13.5l-8 1q-9 -42 -26 -70l3 -3l3 -3q3 5 5.5 10.5t4.5 10.5q5 -28 17 -46q-12 -16 -40 -31q4 -6 5 -7q26 15 39 31q10 -14 34 -30q1 1 2 2.5t2 2.5l2 2q-22 13 -35 30q15 22 18 66zM499 354h-8v-86h8v86zM527 308v59h-8v-60
q0 -15 -1.5 -26.5t-4.5 -19.5q-2 -5 -5 -10t-8 -10l-10 -10l2 -3l4 -3q33 26 31 83zM626 357h-87v-7h39v-25h-33v-78h7v71h26v-91h7v91h26v-53q1 -10 -9 -9q-1 0 -6 1h-4q1 -5 1 -9h11q15 0 15 16v61h-34v25h41v7zM772 358h-125v-131h8v10h109v-10h8v131zM934 356h-103l6 10
l-8 2q-15 -26 -35 -41q3 -4 5 -6q15 12 26 28h109v7zM815 335v-46h104v46h-104zM880 245q22 10 39 22v8h-79q2 2 4 4.5t4 5.5l-8 2q-18 -22 -46 -36l5 -7q15 9 30 21q8 -7 15.5 -11.5t14.5 -8.5q-24 -7 -57 -12l5 -7q37 7 62 17q25 -9 62 -15l3 6l1 1q-31 5 -55 10zM836 268
h72q-20 -13 -39 -19q-16 6 -33 19zM823 309h88v-14h-88v14zM823 329h88v-14h-88v14zM655 351h109v-107h-109v107zM680 271h59v54h-59v-54zM688 318h43v-40h-43v40zM415 323l2 4q0 2 1 3v1h28q-2 -38 -15 -58q-2 5 -4.5 10t-4.5 11.5t-3.5 13.5t-3.5 15z" />
    <glyph glyph-name="uniE630" unicode="&#xe630;" 
d="M4 175v1l31 30l-31 31v1l31 31l-31 31l31 31l-31 31v1l31 31l-31 30v1h1016v-250h-1016zM706 235h9v10h50v-10h8v62h-67v-62zM199 376q-5 -15 -10.5 -28t-11.5 -24t-13 -20q1 0 1 -1v-2q3 -3 4 -5q4 6 8.5 13t7.5 14v-88h8v105q7 16 14 33zM307 352h-72l8 16l2 6l-8 2
q-11 -34 -32 -59q2 -1 3.5 -2.5t2.5 -3.5q13 16 21 33h13v-109h9v36h49v8h-49v30h46v7h-46v28h53v8zM356 300q-13 33 -17 44l-8 -3q6 -14 11.5 -28.5t10.5 -28.5l8 2q-1 2 -1.5 4t-1.5 4.5t-2 5.5zM452 344q-8 -20 -14 -34t-11 -23l8 -4q14 29 25 58zM466 252h-49v121h-7
v-121h-30v121h-8v-121h-48v-8h142v8zM626 310h-37v47h31v7h-129v-7h32v-47h-38v-8h38q0 -3 -0.5 -6.5t-0.5 -6.5t-0.5 -6t-1 -5.5t-1.5 -4.5l-2 -4l-2 -4q-8 -12 -28 -23l2 -2q1 -2 2 -3t2 -3q20 11 29.5 28t8.5 40h50v-66h8v66h37v8zM694 336v8h-28q3 14 5 30l-8 1
q0 -1 -0.5 -3.5t-0.5 -4.5t-1 -6q0 -3 -0.5 -5.5t-1 -4.5t-0.5 -4v-3h-17v-8h16l-4 -16l-2 -14l-4 -16q4 -3 11 -9q2 -2 4 -3.5t3.5 -3t2.5 -3.5q-4 -7 -11 -14t-17 -14q4 -4 5 -6q10 7 17.5 14.5t11.5 14.5q9 -9 18 -15l6 5l-1 1l-1 1q-4 3 -7 6t-5.5 5t-5.5 4q3 4 5 9
t3.5 10.5t3 12.5t2 14.5t1.5 16.5zM758 354l-6 -4q2 -3 9 -16q3 -5 5 -7q-6 -1 -14 -1h-19q-15 -2 -21 -2q14 22 30 49l-8 3q-13 -25 -25 -42l-5 -6l-5 -4l5 -8h2q1 1 3 1h7q4 0 12 1q28 1 42 1q1 -2 2 -3.5t2 -3.5l2 -4l7 5q-4 8 -8 15t-8.5 13.5t-8.5 12.5zM838 360h-31
v-104h7v13h17v-12h7v103zM884 304q-1 3 -1 4q-2 -1 -9 -3q-2 -1 -3.5 -1t-2.5 -1v34h13v7h-13v30h-8v-30h-15v-7h15v-36l-12 -3q-4 -1 -6 -1l2 -8q7 2 16 5v-41q1 -10 -9 -9h-6h-4l1 -4v-4q8 0 12 1q4 0 7.5 1.5t5 5t1.5 8.5v44l12 3q1 0 2 0.5t2 0.5v4zM912 376l-7 -3
q2 -3 6 -17q2 -5 2 -7l7 1q-2 8 -8 26zM938 346h-51v-7h51v7zM889 324q1 -4 2 -11t3 -17q4 -22 5 -30l8 1q-7 40 -10 58zM943 251h-25q10 41 16 73l-7 1q-6 -29 -16 -74h-32v-8h64v8zM814 353h17v-78h-17v78zM656 293q4 18 9 43h21q-3 -39 -13 -57q-5 3 -9 6.5t-8 7.5z
M532 357h49v-47h-49v47zM715 290h50v-38h-50v38z" />
    <glyph glyph-name="uniE631" unicode="&#xe631;" 
d="M778 -212l-66 66l-66 -66h-1l-66 66l-66 -66h-2l-66 66l-66 -66h-1l-66 66l-66 -66h-1v1024h534v-1024h-1zM466 95h95v-40q0 -9 -5 -13t-16 -3q-25 0 -41 1q0 -1 0.5 -3t0.5 -4q3 -7 3 -9h27q11 0 16 1q15 -1 22.5 6.5t7.5 23.5v40h77v13h-77v10l57 36v16h-146v-14h125
l-51 -31v-17h-95v-13zM476 272v25h-16v-25h-77v-15h77v-20h16v20h87v-23h15v23h75v15h-75v25h-15v-25h-87zM382 102q1 -2 2 -3.5t1.5 -2.5t1.5 -1q16 14 42 41v-114h16v133q8 11 16 23t15 23h174v15h-166q2 4 5 8q2 3 3 5t1 4l-16 4q-2 -5 -4.5 -10.5t-5.5 -10.5h-80v-15h72
q-38 -57 -83 -94q2 -1 6 -5zM462 592h-31v62h-16v-62h-36v-14h36v-70q-19 -5 -39 -12l3 -15q4 1 9 3t12 4q10 3 15 4v-82q1 -14 -14 -13h-22q1 -4 1.5 -8t0.5 -8h23q28 0 27 28v88q3 1 7 2.5t9 3.5q12 3 16 5v15q-17 -5 -32 -11v66h31v14zM580 635q-9 14 -11 19l-14 -8
q6 -9 12.5 -19.5t12.5 -22.5l14 8q-1 3 -4.5 9t-9.5 14zM656 411h-73v50h67v14h-67v49h67v14h-67v50h70v13h-146q2 4 4 7.5t4 7.5t3.5 8t3.5 8t4 8.5t3 8.5l-15 5q-25 -66 -63 -108q1 -2 3.5 -4.5t4.5 -4t3 -3.5q6 8 14 19q4 5 7 9v-184h15v22h158v11zM498 461h70v-50h-70
v50zM498 524h70v-49h-70v49zM498 585l1 3h69v-50h-70v47z" />
    <glyph glyph-name="uniE632" unicode="&#xe632;" 
d="M778 -212l-66 66l-66 -66h-1l-66 66l-66 -66h-2l-66 66l-66 -66h-1l-66 66l-66 -66h-1v1024h534v-1024h-1zM467 27q3 -5 4 -7q40 16 63 34t29 38q6 -5 15.5 -12.5t21.5 -18.5q32 -26 44 -36l12 13q-11 8 -35 26q-38 31 -53 43q7 25 5 62v17h-16v-18q1 -62 -18 -86
q-17 -26 -78 -48q1 -2 6 -7zM546 226h-55v-145h16v129h116v-127h15v143h-76l10 42h81v14h-168v-14h71zM376 260h47v-194q0 -6 -2 -10t-6 -5.5t-11 -1.5q-4 0 -8.5 0.5t-8 0.5t-6.5 1q2 -5 3 -13l2 -5h19q35 1 33 29v198h37v14h-99v-14zM633 642h-231v-52h231v52zM657 400
h-42v132h-91v21h126v13h-126v16h-15v-16h-127v-13h127v-21h-91v-132h-42v-13h281v13zM600 497h-167v22h167v-22zM600 465h-167v21h167v-21zM600 431h-167v21h167v-21zM600 400h-167v18h167v-18zM474 601h-58v29h58v-29zM546 601h-58v29h58v-29zM617 601h-57v29h57v-29z" />
    <glyph glyph-name="uniE633" unicode="&#xe633;" 
d="M171 151q-62 0 -105.5 43.5t-43.5 105.5t43.5 105.5t105.5 43.5q41 0 75 -20t54 -54t20 -75q0 -62 -43.5 -105.5t-105.5 -43.5zM320 279v42h682v-42h-682z" />
    <glyph glyph-name="uniE634" unicode="&#xe634;" 
d="M359 742v-327h524l-131 155l131 172h-524zM261 807q-13 0 -23 -9.5t-10 -23.5v-883h-98q-13 0 -22.5 -9.5t-9.5 -23.5v-65h327v65q0 6 -2 11t-5 9t-7 7t-9 4.5t-10 1.5h-98v883q0 9 -4.5 16.5t-12 12t-16.5 4.5z" />
    <glyph glyph-name="uniE635" unicode="&#xe635;" 
d="M962 336h-95q1 17 1 23q0 7 -1 20v4h95q1 -22 1 -24v-5q0 -4 -0.5 -6.5t-0.5 -5.5v-6zM808 557l82 48q12 -19 24 -41l-83 -48q-12 24 -23 41zM685 155l-42 -103h-263l-41 103q-52 38 -82 94.5t-30 121.5q0 113 83.5 193t201.5 80q46 0 89.5 -13.5t78.5 -39t61.5 -59
t41 -75t14.5 -86.5q0 -43 -14 -83.5t-38.5 -74t-59.5 -58.5zM669 678l47 83q3 -1 5 -2.5t4.5 -2.5t5 -2.5t4.5 -2.5t4.5 -2.5t4.5 -3t4.5 -3t4.5 -2.5t5 -3l-48 -82q-6 4 -13 8.5t-14 8t-14 6.5zM488 714v95q2 0 7.5 0.5t8.5 0.5h8h4h6q2 0 4 -0.5t5 -0.5h5v-95h-4
q-4 1 -6 1h-7h-7q-6 0 -24 -1zM266 737q19 12 42 24l47 -83l-8 -4q-4 -2 -8.5 -4.5t-8.5 -4.5t-8 -4.5t-8 -5.5zM111 564q11 22 23 41l82 -48q-4 -6 -8 -13t-7.5 -13.5t-7.5 -14.5zM156 359q0 -6 1 -23h-95v7q0 5 -0.5 9t-0.5 7q0 2 1 24h95q-1 -17 -1 -24zM393 27h238
q4 0 8.5 -2t8 -5t5 -7.5t1.5 -9.5v-23q0 -10 -7 -17t-16 -7h-238q-9 0 -16 7t-7 17v23q0 5 1.5 9.5t5 7.5t8 5t8.5 2zM393 -68h238q4 0 8.5 -2t8 -5t5 -7.5t1.5 -9.5v-23q0 -10 -7 -17t-16 -7h-238q-4 0 -7.5 1t-6.5 3.5t-5 5.5t-3 6.5t-1 7.5v23q0 10 7 17t16 7zM441 -163
h142q10 0 17 -7t7 -16q0 -18 -17 -23l-7 -1h-142q-10 0 -17 7t-7 16.5t7 16.5t17 7z" />
    <glyph glyph-name="uniE636" unicode="&#xe636;" 
d="M922 246q-17 -148 2 -259q-14 -24 -38 -45t-64.5 -36t-89 -16t-115.5 21.5t-138 69.5q-51 33 -100.5 42t-84.5 1.5t-90 -18.5t-99 -12l-22 -125q-2 -11 -9 -20t-17 -14t-20 -5q-17 0 -26.5 11.5t-6.5 27.5l152 862l3 8v1q6 13 18 21.5t25 8.5q11 0 19 -5.5t11 -15.5
q54 7 116.5 5.5t117.5 -8t99.5 -25.5t62.5 -47q11 -19 23.5 -32.5t24.5 -23.5t28 -15.5t30 -9t35.5 -3.5t38 1.5t45 5.5t49 7.5t56.5 10t62 10.5q-74 -180 -98 -379zM530 122q40 82 63 130q-10 4 -25 13q-30 -67 -65 -129zM274 545h-28q-3 -17 -6 -33t-6 -30h-49l-5 -27h49
q-1 -9 -3 -16l-2 -14q-2 -7 -3 -13q-24 -128 -95 -192q10 -12 17 -23q79 74 105 212q4 19 9 46h55q-9 -50 -18.5 -96.5t-18.5 -88.5q-3 -9 -6 -15t-7 -10.5t-8.5 -6.5t-10.5 -2q-16 0 -40 4v-31q28 -1 41 -1q46 -3 59 61q16 76 42 213h-83q5 26 12 63zM383 499l-51 -291h28
l6 36h79l-6 -36h28l52 291h-136zM531 347q25 -23 49 -50q3 2 6 5l5 5l7 7l7 7q-21 21 -53 48zM586 460l-22 -19q28 -28 49 -53q5 4 11.5 9.5t13.5 12.5q-11 12 -24.5 24.5t-27.5 25.5zM793 467h-27l-11 -61h-103l-50 -284h27l4 22h178l-4 -21h28l50 283h-102zM837 292h-75
l16 88h75zM816 170h-75l17 97h75zM660 292l15 88h75l-16 -88h-74zM713 170h-75l17 97h75zM371 269l36 204h79l-36 -204h-79z" />
    <glyph glyph-name="uniE637" unicode="&#xe637;" 
d="M512 -208q-103 0 -197 40.5t-162 108.5t-108.5 162t-40.5 197t40.5 197t108.5 162t162 108.5t197 40.5q187 0 329 -122q136 -116 170 -290q9 -48 9 -96q0 -83 -26 -160.5t-73 -139.5t-109 -109t-139.5 -73t-160.5 -26zM340 561q-18 0 -32.5 -11t-23 -30.5t-8.5 -42.5
t8.5 -42.5t23 -31t32.5 -11.5q26 0 44.5 25t18.5 60t-18.5 59.5t-44.5 24.5zM681 562q-26 0 -44.5 -25t-18.5 -60t18.5 -59.5t44.5 -24.5t45 24.5t19 59.5q0 14 -3.5 27t-9.5 23.5t-13.5 18t-17 12t-20.5 4.5zM776 293q-50 -219 -269.5 -219t-269.5 219h-41
q20 -180 143 -258q73 -44 168 -44q86 0 152.5 36t107.5 104t51 162h-42z" />
    <glyph glyph-name="uniE638" unicode="&#xe638;" 
d="M866 88q1 9 12 21.5t21 25.5t10 21q0 10 -17.5 38.5t-15.5 39.5q1 8 17 28.5t16 29.5q2 22 -21.5 57.5t-45.5 43.5q-20 8 -87.5 10.5t-125.5 1.5l-58 -2q-6 8 -4.5 24t5.5 30t12.5 33.5t16 34t15.5 31t12 24.5q6 15 10 32t5 33.5t0 33.5t-4 32t-8.5 28.5t-13.5 24.5
q-18 23 -44.5 35t-46 10t-19.5 -14q-5 -79 -18 -129.5t-27.5 -73t-38.5 -40.5q-12 -10 -18.5 -15t-15.5 -14t-15 -18t-10 -20q-33 -85 -65.5 -143t-53.5 -80t-37 -25l-93 -1v-395l286 -38q11 -1 29 -3t68 -4.5t92 -3.5t87.5 1.5t68.5 9.5q31 9 65 47q12 15 17 25q3 7 2 32
t3 31q3 6 29 32.5t26 42.5q0 10 -11.5 37.5t-10.5 37.5z" />
    <glyph glyph-name="uniE639" unicode="&#xe639;" 
d="M865 -99h-597q-22 0 -41 11t-30 29.5t-11 40.5v730q0 34 24 57.5t58 23.5h353v-54h-326q-11 0 -21 -4.5t-17.5 -11.5t-11.5 -17t-4 -21v-676q0 -22 16 -38t38 -16h543q14 0 26.5 7.5t20 20t7.5 26.5v433h54v-460q0 -46 -40 -70q-20 -11 -41 -11zM461 299
q-7 -7 -17.5 -6.5t-18.5 8.5t-8.5 18.5t6.5 17.5l465 464q7 7 17.5 6t18.5 -9t9 -18.5t-6 -16.5zM214 -153h434h81q11 0 23 4q-7 -25 -28.5 -41.5t-48.5 -16.5h-516q-16 0 -31 6.5t-26 17.5t-17.5 26t-6.5 31v676q0 26 15 46.5t39 29.5v-103v-595v-27q0 -15 7.5 -27
t20 -19.5t26.5 -7.5h28z" />
    <glyph glyph-name="uniE63A" unicode="&#xe63a;" 
d="M951 -82h-23h-30h-772h-30h-23q-3 15 -3 25q0 49 29 88.5t75 55.5v264h2q-1 5 -1 8.5t-0.5 8t-0.5 8.5q0 110 66 197t170 119q-2 11 -2 16q0 27 14 50.5t38 37.5t52 14t52 -14t38 -37.5t14 -50.5q0 -5 -2 -16q34 -10 65 -27.5t57 -40t47 -50.5t36 -59.5t23 -66.5t8 -72
q0 -9 -2 -25h2v-264q46 -16 75 -55.5t29 -88.5q0 -6 -1 -12t-2 -13zM798 45v306h-2q1 7 1.5 13t0.5 12q0 68 -30.5 127t-84 98t-119.5 51v56q0 14 -7 25.5t-19 18.5t-26 7q-7 0 -14 -2t-12.5 -5.5t-10.5 -8t-8 -10t-5 -12t-2 -13.5v-56q-39 -7 -75 -24.5t-65 -43.5t-50 -58
t-32.5 -70.5t-11.5 -79.5q0 -11 2 -25h-2v-306q-36 0 -63.5 -21.5t-36.5 -54.5h772q-3 13 -10 24.5t-16.5 21t-21 16.5t-25 10.5t-27.5 3.5zM512 -159q22 0 37 15t15 36h52q0 -27 -14 -50.5t-38 -37.5t-52 -14q-17 0 -33 5.5t-28.5 15t-22 22t-15 28t-5.5 31.5h52
q0 -10 4 -19.5t11 -16.5t16.5 -11t20.5 -4z" />
    <glyph glyph-name="uniE63B" unicode="&#xe63b;" 
d="M685 -208q-131 0 -224 91t-93 219.5t93 219.5t224 91t224 -91t93 -219.5t-93 -219.5t-224 -91zM685 356q-108 0 -183.5 -74t-75.5 -179.5t75.5 -180t183 -74.5t183.5 74.5t76 179.5q0 52 -20.5 99t-55 81t-82.5 54t-101 20zM714 74h-58v57v169h58v-169h172v-57h-172z
M195 244v56h108q-7 -13 -13.5 -27.5t-11.5 -28.5h-83zM195 639h461v-57h-461v57zM195 413v56h275q-21 -12 -40.5 -26t-37.5 -30h-197zM771 695q0 15 -7.5 28t-21 21t-28.5 8h-576q-24 0 -41 -17t-17 -40v-677q0 -16 7.5 -29t21 -20.5t29.5 -7.5h140q2 -7 5 -14l6 -14
q3 -7 6.5 -14t7.5 -14h-165q-48 0 -82 33t-34 80v677q0 31 15.5 57t42 41t58.5 15h576q31 0 57.5 -15t42 -41t15.5 -57v-194q-7 3 -14 5t-14.5 4t-14.5 4t-15 3v178z" />
    <glyph glyph-name="uniE63C" unicode="&#xe63c;" 
d="M504 76l-81 82l515 519l81 -82zM749 694q0 24 -16.5 40.5t-40.5 16.5h-458h-99q5 8 10 14.5t11 12.5t13 10.5t14.5 8.5t16 6.5t17 4t17.5 1.5h458q19 0 36.5 -6t31.5 -16.5t24.5 -24.5t16.5 -31.5t6 -36.5v-68l-58 -57v125zM365 100l81 -82l-57 -57l-81 81zM692 522v-11
l-57 -58v80q0 23 -17 43t-40 24l-458 72q-24 4 -41 -10t-17 -38v-635q0 -23 17 -43t41 -24l458 -72q15 -2 28.5 3t21 17t7.5 28v229l57 57v-296q0 -48 -33.5 -76t-80.5 -19l-458 71q-61 11 -95 68q-20 33 -20 68v634q0 48 33.5 76t81.5 19l458 -71q47 -8 80.5 -48t33.5 -88z
M807 117q0 -32 -15.5 -58t-42.5 -42v100v125l58 58v-183z" />
    <glyph glyph-name="uniE63D" unicode="&#xe63d;" 
d="M850 306v484h-813v-940q0 -30 21 -51t50 -21h777q13 0 25 3t22.5 8t19.5 12.5t16.5 17t12.5 20t8 22.5t3 24v421h-142zM778 -150h-670v869h670v-869zM195 529h285v-71h-285v71zM195 387h499v-71h-499v71zM195 244h499v-71h-499v71z" />
    <glyph glyph-name="uniE63E" unicode="&#xe63e;" 
d="M377 692q94 111 197 111q72 1 99 7q24 4 28 -10q2 -5 5 -9.5t7.5 -8t10.5 -5.5t14 -4q63 -13 102 -64q9 -13 16 -28t12.5 -32.5t9 -37.5t5.5 -43t2 -49q-2 -124 -87 -340q-88 -217 -187 -310q-42 -40 -89 -60t-98 -20q-133 0 -202 69q-83 83 -83 198q0 197 72 363
q36 81 78 149.5t88 123.5v0zM270 400q-68 -158 -68 -344q0 -90 73 -159q51 -49 149 -49q78 0 147 68q95 92 171 290q80 204 80 307q0 113 -40 161q-39 46 -70 46q-23 0 -29 13q-8 13 -18 5q-11 -8 -28 -3q-24 9 -63 9q-82 -2 -153 -87q-87 -105 -151 -257v0z" />
    <glyph glyph-name="uniE63F" unicode="&#xe63f;" 
d="M722 753q84 -68 94 -147q1 -22 8.5 -37t20.5 -24q24 -16 15 -29q-15 -22 -40 -22q-12 2 -17 2q0 -2 -1 -4.5t-2 -4.5t-1.5 -4.5t-2.5 -4.5v-1l-1 -1v0l-1 -1l-1 -1v-1l-1 -1l-1 -1v-1h-1v-1h-1v-1l-1 -1l-1 -1v-1h-1v-1l-1 -1l-1 -1v-1h-1v-1h-1v-1v-1h-1v-1h-1v-1h-1v-1
v-1h-1v-1h-1v-1l-1 -1v-1h-1v-1l-1 -1l-1 -1l-1 -1v-1l-1 -1v-1h-1v-1h-1v-1l-1 -1v-1l-1 -1l-1 -1v-1h-1v-1l-1 -1l-1 -1v-1l-1 -1l-1 -1v-1h-1v-1l-1 -1v-1h-1v-1l-1 -1v-1l-1 -1l-1 -1v-1h-1v-1l-1 -1l-1 -1v-1l-1 -1l-1 -1v-1h-1v-1l-1 -1v-1h-1v-1l-1 -1l-1 -1v-1v-1
h-1v-1l-1 -1l-1 -1v-1l-1 -1l-1 -1v-1l-1 -1l-1 -1v-1l-1 -1l-1 -1v-1l-1 -1l-1 -1v-1l-1 -1l-1 -1v-1l-1 -1v-1h-1v-1l-1 -1v-1h-1v-1l-1 -1v-1l-1 -1h-1v-1l-1 -1v-1h-1v-1l-1 -1v-1l-1 -1l-1 -1v-1l-1 -1v-1h-1v-1l-1 -1v-1l-1 -1v-1h-1v-1l-1 -1v-1l-1 -1h-1v-1l-1 -1
v-1l-1 -1v-1h-1v-1l-1 -1v-1l-1 -1l-1 -1v-1l-1 -1v-1l-1 -1l-1 -1l-1 -1v-1l-1 -1v-1l-1 -1l-1 -1v-1l-1 -1v-1l-1 -1l-1 -1l-1 -1v-1l-1 -1v-1l-1 -1v-1h-1v-1l-1 -1l-1 -1v-1l-1 -1v-1h-1v-1l-1 -1v-1l-1 -1l-1 -1v-1l-1 -1v-1h-1v-1l-1 -1v-1l-1 -1l-1 -1v-1l-1 -1
l-1 -1v-1l-1 -1v-1l-1 -1l-1 -1v-1l-1 -1v-1h-1v-1l-1 -1v-1l-1 -1l-1 -1v-1l-1 -1v-1l-1 -1v-1h-1l-1 -1v-1l-1 -1v-1l-1 -1v-1l-1 -1l-1 -1v-1l-1 -1v-1h-1v-1l-1 -1l-1 -1v-1l-1 -1v-1l-1 -1v-1l-1 -1l-1 -1v-1l-1 -1v-1l-1 -1l-1 -1l-1 -1v-1l-1 -1v-1l-1 -1l-1 -1v-1
l-1 -1v-1l-1 -1v-1l-1 -1l-1 -1v-1l-1 -1v-1l-1 -1h-1v-1l-1 -1v-1l-1 -1v-1l-1 -1l-1 -1v-1l-1 -1v-1l-1 -1l-1 -1v-1l-1 -1v-1l-1 -1l-1 -1v-1l-1 -1v-1l-1 -1l-1 -1v-1l-1 -1v-1l-1 -1l-1 -1v-1l-1 -1v-1l-1 -1v-1l-1 -1l-1 -1v-1l-1 -1l-1 -1l-1 -1v-1l-1 -1v-1l-1 -1
l-1 -1v-1l-1 -1v-1l-1 -1l-1 -1v-1l-1 -2q-120 -195 -158 -287q-10 -19 -16 -36t-8 -32q-8 -47 -34 -47q-12 0 -19 6.5t-10 18.5q-4 20 -10 39q-2 8 0.5 20.5t9.5 30.5q1 4 3.5 8t6 8t8.5 8q14 13 31 46q14 25 28 50.5t29 52.5q49 87 117 195q34 56 72 115
q-153 -100 -241 -100q-113 1 -183 60q-76 62 -74 157q-2 128 103 216q108 89 258 90q62 1 112 -13.5t87 -43.5v0zM744 522q4 3 8 5t9 3q-11 25 -7 76q0 16 -7 32.5t-21 32t-35 31.5q-65 49 -168 51q-58 -2 -111.5 -22t-101.5 -58q-85 -65 -87 -169q0 -17 3.5 -32.5
t10.5 -29.5t17.5 -26.5t23.5 -22.5q61 -47 141 -48q101 0 325 177v0z" />
    <glyph glyph-name="uniE640" unicode="&#xe640;" 
d="M843 630q-2 -8 0 -14.5t7 -11.5q0 -1 0.5 -2.5t0.5 -4.5q20 11 42 21q4 4 6.5 8t4 8.5t2.5 9.5t2 11q0 13 6.5 19.5t19.5 7.5q25 0 23 -19q-3 -18 7 -45q2 -3 0.5 -7.5t-5.5 -9.5q-5 -6 -11 -10.5t-15 -6.5q-10 -3 -27 -10.5t-41 -18.5q-156 -83 -269 -140
q-68 -33 -154 -94q129 -152 129 -273q0 -30 -5.5 -57t-16 -51t-26 -44.5t-35.5 -38.5q-9 -6 -17 -12.5t-16.5 -12t-17.5 -10t-18 -8.5t-18 -7.5t-18 -6t-18.5 -4.5t-19 -3.5t-19.5 -2.5t-19 -1q-115 2 -184 67q-64 61 -64 137q0 115 161 239q69 56 142 101q-6 4 -7 8
q-126 150 -126 240q0 109 63 166q71 64 177 64q79 0 149 -20.5t130 -60.5q90 -61 95 -100v0zM396 289q-19 -14 -50 -36q-88 -65 -144 -117q-72 -69 -72 -143q1 -55 49 -99q50 -45 128 -45q70 1 131 54q69 59 69 145q0 99 -111 241v0zM292 581q0 -72 116 -217q135 87 272 152
q48 26 120 57q-7 7 -6 21q-1 28 -36 62q-26 24 -55.5 41t-63.5 27q-88 27 -170 27q-73 0 -133 -51q-44 -41 -44 -119v0z" />
    <glyph glyph-name="uniE641" unicode="&#xe641;" 
d="M327 665l-6 -8q-3 -4 -7 -9l-6 -8q-4 -5 -7 -10t-7 -10q-34 -45 -56 -80t-33 -60q-11 -22 -10 -40q1 -10 -1 -17.5t-6.5 -12t-11.5 -6.5q-2 -1 -4 -1t-4 0.5t-3.5 1.5t-2.5 3t-3 5q-4 6 -9.5 11t-12.5 9q-6 5 -5 16.5t10 30.5q26 64 96 160q35 46 53.5 71.5t18.5 30.5
q10 35 18 52t15 16q20 -2 37 -28q3 -5 4 -9.5t0 -9.5t-3.5 -10.5t-7.5 -10.5q-3 -3 -5.5 -6t-5 -7t-4.5 -8q84 -24 193 -26q122 0 229 30q23 13 61 55q24 24 46 -13q19 -29 -26 -88q-27 -31 -61 -80q-6 -9 -14.5 -22t-14 -21t-9.5 -14q-18 -25 -28 -46q-12 -22 -38 -56
q-53 -68 -124 -183q-80 -128 -192 -384q-15 -30 -15 -48q-1 -31 -23 -35q-15 -2 -29 27q-11 26 -7 56q0 17 13 25q16 14 42 77q69 163 165 317q50 80 85.5 135t57.5 84q28 40 55.5 79t55.5 78q-103 -33 -220 -32q-30 1 -57 2.5t-52 4t-47 5.5t-41 7.5t-36 9.5v0z" />
    <glyph glyph-name="uniE642" unicode="&#xe642;" 
d="M562 738q-3 30 -2.5 47t5.5 22q14 9 24 -5q4 -5 9.5 -9.5t12.5 -8.5q15 -4 14 -46q1 -39 -105 -161q-59 -70 -109.5 -140t-93.5 -141q117 58 210 58q160 -1 249 -86q80 -72 81 -181q0 -120 -121 -213q-111 -85 -245 -85q-15 0 -30 1t-29 3t-27.5 4.5t-26.5 5.5t-25.5 7.5
t-24 9.5t-22.5 11t-21.5 13t-20.5 14.5t-19 15.5q-79 75 -78 180q4 97 81 236q87 156 210 304q104 128 104 144v0zM491 -152q107 0 209 76q94 74 94 163q0 82 -62 141q-75 68 -205 68q-114 0 -265 -100q-38 -79 -32 -142q-5 -40 11 -76t53 -68q68 -61 197 -62v0z" />
    <glyph glyph-name="uniE643" unicode="&#xe643;" 
d="M418 725q20 44 26 66q4 21 22 19q6 0 10.5 -5t6.5 -15q5 -19 17 -29q3 -3 4.5 -6.5t1.5 -8t-2 -9.5t-5 -12q-18 -24 -36 -54q25 6 55.5 10.5t66.5 6.5q60 6 119.5 7.5t117.5 -1.5q12 0 25 -7.5t28 -24.5q11 -13 -7 -30q-20 -15 -46 -1q-41 18 -174 5q-59 -5 -114 -12.5
t-105 -18.5q-22 -47 -44 -102q-48 -112 -61 -178q83 22 173 22q62 0 116 -21t100 -62q76 -68 76 -177q0 -118 -115 -210q-107 -88 -244 -88q-124 2 -207 77q-66 59 -76 131q-5 38 4 44q4 2 7 5t5 6t3.5 7t1.5 8q4 13 30 0q16 -9 11 -70q-3 -30 56 -88q69 -62 165 -62
q119 0 207 78q45 39 68 79.5t23 82.5q0 85 -66 144q-66 58 -165 58q-90 -1 -144 -11q-24 -5 -41 -11q-10 -27 -28 -41q-5 -3 -11.5 -2.5t-13.5 5t-16 12.5q-30 32 -4 53q0 2 2 3q4 5 6 10t2 9q1 36 44 139q59 143 125 270v0z" />
    <glyph glyph-name="uniE644" unicode="&#xe644;" 
d="M358 535q83 128 124 169q5 7 9 13.5t7 12.5t5.5 12.5t4.5 12.5t3 12q5 28 15 29q12 0 22 -12q5 -6 10 -11.5t9 -12.5q16 -26 -22 -56q-15 -11 -19 -23q-6 -11 -15 -20q-12 -10 -92 -135q-70 -107 -119 -192.5t-76 -149.5q-17 -9 -7 -11q138 47 323 -4q68 126 110 216
q73 155 110 210q14 20 25 40t20 39q10 22 27 44q22 30 32 68q7 29 25 24q20 -7 26 -29q5 -29 -20 -63q-66 -109 -124 -222q-37 -75 -73 -149q-48 -100 -86 -161q-12 -17 -18 -30q35 -7 61.5 -10t45.5 -3q25 2 45.5 3t38.5 1q31 0 52 14q11 6 19.5 3.5t14.5 -13.5
q3 -6 0.5 -15.5t-11.5 -22.5q-13 -22 -75 -23q-25 -1 -49 -1.5t-46 0.5t-43 3t-40.5 5.5t-38.5 7.5q-6 -22 -20 -47q-18 -29 -32 -57q-16 -31 -34 -62t-38 -71q-41 -70 -67 -78q-8 -2 -13.5 1t-9 10.5t-5.5 20.5q-4 41 21 46q15 14 118 203q12 27 26 49q-80 22 -147 22
q-63 0 -150 -26q-16 -6 -27.5 -11.5t-19.5 -10.5t-12 -10q-11 -15 -33 -13q-15 0 -16 26q-2 24 19 41q19 16 33 46q105 211 197 351v0z" />
    <glyph glyph-name="uniE645" unicode="&#xe645;" 
d="M458 -211q-157 5 -251 82q-75 63 -69 105q1 17 -9 27q-25 29 17 72q44 44 61 -72q12 -72 61 -102q87 -52 190 -52q120 -4 210.5 76.5t90.5 174.5q0 122 -106 174q-35 16 -72.5 25t-78.5 9t-85 -7h-10q-51 -14 -77 21q-9 13 -8.5 24.5t9.5 21.5q6 5 25 5.5t51 -2.5h33
q48 5 95.5 14.5t94.5 23.5q102 34 157 95q47 51 47 99q0 10 -2 20t-5.5 19t-9.5 17.5t-13.5 16.5t-17 15t-20.5 14q-79 46 -165 46q-89 0 -170 -35q-8 -4 -15.5 -8t-13.5 -9.5t-11 -11t-8 -12t-5 -13.5q-19 -68 -58 -55q-21 7 -20 55q1 16 8 29t20 22q24 13 38 31
q17 21 94 44t141 23q121 0 212 -61q30 -20 50.5 -43.5t30.5 -49t10 -54.5q-1 -88 -91 -170q-36 -30 -78 -52t-92 -36q68 -20 107 -60q71 -69 72 -185q0 -123 -114 -226q-96 -85 -250 -85v0z" />
    <glyph glyph-name="uniE646" unicode="&#xe646;" 
d="M785 747q73 -55 73 -158q0 -98 -81 -218q-64 -96 -216 -232q-29 -26 -59.5 -51.5t-62.5 -52.5t-65 -54q63 -24 139 -68q114 -66 167 -66q10 0 21.5 2t24 5.5t25.5 9t27 13.5q32 15 51 24.5t24 11.5q5 5 12 7.5t16 2.5q3 1 6 3.5t5.5 6.5t3.5 10q6 14 24 8q17 -8 16 -35
q-3 -32 -20 -36.5t-35 -13.5q-151 -77 -201 -77q-58 0 -195 78q-94 53 -166 72q-40 -30 -80 -61q-107 -79 -117 -70.5t-23 3.5q-11 -6 -11 42q1 61 41 104q52 52 121 52q27 -1 58 -7q11 9 21 17q119 101 236 206q112 100 160 180q70 115 70 184q0 68 -56 112q-61 45 -141 45
q-49 0 -91.5 -10.5t-79.5 -32.5q-54 -30 -56 -61q-3 -29 -13.5 -41t-27.5 -7q-19 5 -27.5 10.5t-6.5 10.5q2 4 2.5 8.5t-0.5 9t-3 9.5q-3 6 3 19q7 12 6 21q0 14 52 54q97 75 242 75q103 0 187 -64v0zM192 -88q8 5 52 37q-50 0 -81 -30q-23 -20 -21 -38q9 1 15.5 3.5
t9.5 7.5q4 5 8 8.5t8.5 6.5t8.5 5v0z" />
    <glyph glyph-name="uniE647" unicode="&#xe647;" 
d="M640 721q9 6 17 14.5t15.5 19t14.5 23.5q17 31 25 32q6 1 9.5 -1.5t4.5 -9.5q1 -10 15 -19q6 -4 7.5 -9.5t-0.5 -12.5t-8 -16q-5 -7 -10 -15t-9.5 -17t-8 -18.5t-7.5 -20.5q-12 -28 -32 -68.5t-47 -93.5q-83 -168 -159 -354q-80 -201 -114 -315q-19 -50 -46 -50
q-19 -2 -29 50q-5 14 -3 25t11 18q17 15 34 62q35 93 111 278q84 195 134 293q47 96 69 143q-53 -28 -90 -38q-13 -3 -23.5 -6t-20 -6.5t-16.5 -8.5q-26 -12 -53 -4q-16 5 -23.5 17t-6.5 32q0 26 30 10q28 -10 209 66v0z" />
    <glyph glyph-name="uniE648" unicode="&#xe648;" 
d="M967 72h-910q-20 0 -34.5 14.5t-14.5 34.5v358q0 20 14.5 34.5t34.5 14.5h910q13 0 24.5 -7t18 -18t6.5 -24v-358q0 -13 -6.5 -24t-18 -18t-24.5 -7zM1000 479q0 13 -9.5 22.5t-23.5 9.5h-910q-14 0 -23.5 -9.5t-9.5 -22.5v-358q0 -13 9.5 -22.5t23.5 -9.5h910
q5 0 10 1.5t9 4.5t7 7t5 9t2 10v358zM729 196q1 -15 -6.5 -22.5t-22.5 -6.5q-5 -1 -16 -1h-27q0 2 -2 9l-1 7q14 -2 40 -2q11 0 16 4t4 12v39h-93v14h93v16l51 31h-124v14h144v-16l-56 -36v-9h77v-14h-77v-39zM732 372h-15v23h-86v-19h-16v19h-75v15h75v25h16v-25h86v25h15
v-25h74v-15h-74v-23zM614 340h-71v15h79q5 10 10 21l16 -5l-4 -8q-3 -4 -5 -8h163v-15h-171q-5 -7 -10 -14.5t-10 -15.5t-11 -15v-132h-16v113q-8 -9 -15.5 -16.5t-14 -13.5t-11.5 -11q-1 3 -5 7v1l-5 5q22 18 42.5 41t38.5 51zM351 163h-15v182q-3 -4 -7 -9q-8 -11 -13 -18
q-1 0 -5 4l-7 7q19 21 34.5 47.5t28.5 58.5l15 -4q-5 -13 -10.5 -25t-11.5 -22h144v-14h-70v-49h67v-14h-67v-48h67v-13h-67v-50h72v-11h-155v-22zM420 370h-68l-1 -2v-47h69v49zM420 307h-69v-48h69v48zM420 196v50h-69v-50h69zM407 427l14 8q3 -5 11 -18q5 -8 8.5 -13.5
t5.5 -9.5l-14 -8l-4 8q-2 4 -4 7.5t-4.5 7t-4.5 6.5l-4 6zM285 296q14 5 32 10v-15q-5 -1 -16 -4q-10 -4 -16 -6v-87q1 -27 -27 -27h-22q0 2 -0.5 4.5t-1 5.5t-1.5 6h22q15 -1 14 12v81q-5 -1 -15 -4q-6 -2 -11 -4t-10 -3l-2 15q19 7 38 11v70h-36v14h36v60h16v-60h31v-14
h-31v-65z" />
    <glyph glyph-name="uniE649" unicode="&#xe649;" 
d="M969 72h-914q-20 0 -34.5 14t-14.5 35v358q0 21 14.5 35t34.5 14h914q20 0 34.5 -14t14.5 -35v-358q0 -21 -14.5 -35t-34.5 -14zM1002 479q0 14 -10 23.5t-23 9.5h-914q-13 0 -23 -9.5t-10 -23.5v-358q0 -7 3 -13t7 -10.5t10 -7t13 -2.5h914q13 0 23 9.5t10 23.5v358z
M656 308q-13 22 -29 49q-1 2 -2 3l-2 4l-2 2l-1.5 3t-0.5 2l14 9q8 -13 15 -23.5t12.5 -20t10.5 -17.5zM755 317q23 30 41 63l16 -9q-9 -15 -25 -38q-12 -17 -17 -26zM723 143h-18v121h-104v15h104v130h-90v17h195v-17h-87v-130h105v-15h-105v-121zM543 417l-7 7q-2 2 -3 4
l13 10q35 -34 47 -49l-14 -12q-5 7 -14 16.5t-22 23.5zM574 185l48 34q0 -9 4 -18q-34 -21 -52 -34q-3 -3 -8 -6q-2 -3 -4 -5l-2 -2l-13 15q10 11 10 29v123h-39v15h56v-151zM188 180h216l5 61h-183l27 163h-54v17h273v-17h-201l-9 -53h173l-11 -171h61v-14h-297v14z
M416 334h-157l-13 -77h165z" />
    <glyph glyph-name="uniE64A" unicode="&#xe64a;" 
d="M908 71h-464l-271 -229v229h-57q-46 0 -79.5 33.5t-33.5 81.5v457q0 48 33.5 81.5t79.5 33.5h792q46 0 79.5 -33.5t33.5 -81.5v-457q0 -48 -33.5 -81.5t-79.5 -33.5zM964 643q0 24 -16.5 41t-39.5 17h-792q-23 0 -39.5 -17t-16.5 -41v-457q0 -24 16.5 -41t39.5 -17h57h56
v-114l170 114h113h396q23 0 39.5 17t16.5 41v457zM738 357q-15 0 -28 8t-20.5 21t-7.5 28q0 24 16.5 41t40 17t40 -17t16.5 -41q0 -15 -7.5 -28t-21 -21t-28.5 -8zM512 357q-15 0 -28 8t-21 21t-8 28.5t8 28.5t21 21t28 8t28 -8t21 -21t8 -29q0 -36 -33 -51q-12 -6 -24 -6z
M286 357q-24 0 -40.5 17t-16.5 40q0 12 4.5 22.5t12 18.5t18 12.5t22.5 4.5q6 0 11.5 -1.5t10.5 -3.5t9.5 -5t8.5 -7t7 -8.5t5 -9.5t3 -11t1 -12q0 -23 -16.5 -40t-39.5 -17z" />
    <glyph glyph-name="uniE64B" unicode="&#xe64b;" 
d="M997 450l-428 -428l-23 -23l-138 -138l-8 -2q-10 -5 -20.5 -7t-22.5 -1l-317 -58q-18 -4 -28.5 6.5t-6.5 29.5l59 318q-2 21 7 40l2 8l139 139l23 23l427 428q6 6 12.5 10t14 7t15 4.5t15 1.5t15 -1.5t14.5 -4.5t13.5 -7t12.5 -10l223 -223q23 -23 23 -56t-23 -56z
M46 -149q-2 -10 3 -15t14 -3l235 52l-201 201zM123 171q-5 -5 -6.5 -11.5t0 -13.5t6.5 -12l223 -223q8 -8 19 -8t19 8l483 483l-74 75l-372 -372l-37 37l371 372l-55 56l-465 -465l-37 37l464 465l-55 56zM960 525l-223 223q-8 7 -19 7t-18 -7l-56 -56l260 -260l56 55
q5 5 7 12t0 13.5t-7 12.5z" />
    <glyph glyph-name="uniE64C" unicode="&#xe64c;" 
d="M775 739v-932h-1l-65 65l-64 -65h-2l-65 65l-65 -65h-1l-65 65l-65 -65h-1l-65 65l-65 -65h-1v1005h525l29 -73h-29zM383 104h126v-69h16v69h127v15h-127v38h-16v-38h-126v-15zM637 277l-10 12q-12 -9 -25 -17.5t-26.5 -16t-27.5 -14.5v64h-16v-71q-7 -3 -15 -6.5
t-16.5 -6.5t-17.5 -6l-18 -6q2 -3 4 -6.5t4 -7.5q28 10 44 16q5 2 9 3.5t6 2.5v-17q-2 -39 40 -37h35q33 -1 39 27q3 12 6 31q-1 0 -5 2q-3 1 -5.5 1.5t-4.5 1.5q0 -1 -0.5 -2t-0.5 -4q-1 -3 -1 -6v-4q0 -2 -0.5 -4t-1 -3.5t-0.5 -2.5t-1 -2q-1 -11 -8.5 -15.5t-19.5 -4.5
h-30q-28 -2 -26 24v22q48 24 89 53zM622 436v-17q0 -6 -2 -9.5t-6.5 -5.5t-10.5 -1q-23 0 -36 1q4 -7 4 -16h7q5 0 11 1h17q6 0 11 1t8.5 3.5t6 6t3.5 8t1 11.5v103h-138v-136h15v50h109zM390 207q22 16 42 35v-87h16v104q8 9 16.5 19.5t17.5 22.5l-15 7q-39 -56 -86 -88
q3 -4 5.5 -7t3.5 -6zM393 629l-12 -4q4 -9 8.5 -20.5t10.5 -26.5q1 -5 2 -7l13 5q-9 24 -22 53zM471 629q-10 -25 -23 -53l12 -5q13 29 23 54zM451 510l-1 1l-1 1l-10 -8v35h38v14h-38v102h-14v-102h-43v-14h42q-15 -55 -46 -95q1 -1 2 -2.5t2 -3.5q3 -6 4 -9q24 33 39 80
v-122h14v116q3 -5 12 -16q13 -18 20 -27l12 9q-8 11 -32 41zM655 556h-81v25h70v13h-70v24h78v12h-78v28h-15v-28h-68v-12h68v-24h-60v-13h60v-25h-72v-12h168v12zM513 473h109v-25h-109v25zM513 510h109v-25h-109v25z" />
    <glyph glyph-name="uniE64D" unicode="&#xe64d;" 
d="M194 678q-9 0 -17 4.5t-12.5 12.5t-4.5 17q0 15 10 24.5t24 9.5h630q14 0 24 -9.5t10 -24t-10 -24.5t-24 -10h-28q-5 -154 -64 -256v-1q-49 -85 -134 -127q84 -41 134 -126v-2q56 -96 63 -242h29q14 0 24 -10t10 -24q0 -9 -4.5 -17t-12.5 -12.5t-17 -4.5h-630
q-14 0 -24 10t-10 24t10 24t24 10h29q7 146 63 242v2q50 85 134 126q-84 42 -134 127v1q-58 100 -64 256h-28zM750 -76q-15 52 -45 91t-70 63q-58 33 -126 33q-33 0 -65 -8.5t-61 -24.5q-40 -24 -70 -63t-45 -91h482zM280 40q35 45 83 73q68 39 146 39t146 -39
q48 -27 83 -73q-15 62 -41 106l-1 1q-55 95 -159 128l-3 1h-1l-3 2h-1l-1 1v1l-2 1v1q-1 1 -2 3v1q-1 3 -2 5v2v1v1v1v1v1l2 5l2 4l2 2l1 1l1 1q1 0 2 1q1 0 1 1h1l3 1q104 32 159 128h1q8 15 15 30.5t13.5 33t11.5 37t8.5 41t6 45.5t3.5 49h-492q3 -74 18 -133t40 -103h1
q56 -97 160 -128l2 -1h1l1 -1q1 -1 2 -1l1 -1l1 -1l2 -2q0 -1 2 -4q2 -2 2 -5v-1v-1v-1v-1v-1v-2l-2 -5v-1v-1q-1 -2 -2 -2v-1l-2 -1v-1l-1 -1h-1q-1 -1 -3 -2h-1l-2 -1q-105 -33 -160 -128l-1 -1q-2 -5 -5 -10l-4 -8q-3 -5 -5.5 -10t-4.5 -10l-4 -10l-4 -12l-4 -10
q-2 -6 -3.5 -12t-3.5 -12t-3 -12zM330 505q11 -30 27 -55t37 -46q40 -39 98 -57l1 -1l5 -2h2q2 -1 3 -2h1q3 -1 5.5 -1t5 1t4.5 2l6 2l1 1q20 6 37.5 14.5t32.5 19t28 23.5q42 41 64 101q2 4 2 8t-1.5 7.5t-4.5 6t-7 4.5t-8 1.5t-8 -2t-6.5 -4.5t-4.5 -7q-21 -52 -55 -85
t-81 -48l-1 -1h-2l-2 -1l-2 1h-1l-2 1q-48 15 -81 48q-34 33 -55 85q-3 8 -11 11.5t-15 0.5q-3 -1 -6 -3t-4.5 -5t-2 -6t-0.5 -6t1 -6zM513 385v0v0z" />
    <glyph glyph-name="uniE64E" unicode="&#xe64e;" 
d="M370 748q-7 5 -14.5 10.5t-15.5 10t-16.5 8t-17.5 6.5t-18 5t-19 3t-20 1q-78 0 -133.5 -55.5t-55.5 -133.5q0 -51 27 -96q50 81 122.5 143t160.5 98v0zM518 697q-93 0 -178 -36t-146 -97.5t-97.5 -146t-36.5 -178t36.5 -178t97.5 -146t146 -97.5t178 -36t178 36
t146 97.5t97.5 146t36.5 177.5q0 75 -23 145t-65.5 126t-99 98.5t-126 65.5t-144.5 23zM518 -124q-99 0 -182.5 48.5t-132 132.5t-48.5 182.5t48.5 182t132 132.5t182.5 49q74 0 141 -29t116 -77.5t77.5 -116t28.5 -141.5q0 -59 -18 -114.5t-52 -100t-78.5 -78t-100 -52
t-114.5 -18.5zM949 508q27 45 27 95q0 79 -56.5 134t-136.5 55q-69 0 -123 -44q45 -18 86.5 -43t78 -55t67.5 -66t57 -76v0zM692 255h-127v221q0 9 -4 16t-11.5 11.5t-15.5 4.5h-32q-13 0 -22 -9.5t-9 -22.5v-284q0 -13 9 -22t22 -9h190q3 0 6.5 0.5t7 2t6 4t4.5 5t4 5.5
t2.5 6.5t0.5 7.5v32q0 13 -9 22t-22 9v0zM692 255z" />
    <glyph glyph-name="uniE64F" unicode="&#xe64f;" 
d="M1000 547l-22 23q-9 9 -22 9t-23 -9l-424 -430l-420 425q-6 6 -13.5 8.5t-15.5 0t-14 -8.5l-22 -22q-9 -9 -9 -22t9 -22l458 -464q5 -5 12 -8q4 -3 9.5 -4.5t11 -1.5t10.5 2.5t10 6.5l465 472q9 9 9 22.5t-9 22.5z" />
    <glyph glyph-name="uniE650" unicode="&#xe650;" 
d="M24 53l22 -23q9 -9 22 -9t23 9l424 430l420 -425q9 -9 21.5 -9t21.5 9l22 22q6 6 8 14t0 16t-8 14l-458 464q-1 2 -3 3.5t-4 2.5t-5 2q-9 7 -20.5 6t-20.5 -9l-465 -472q-4 -4 -6 -8.5t-3 -9.5t0 -9.5t3 -9t6 -8.5z" />
    <glyph glyph-name="uniE651" unicode="&#xe651;" 
d="M309 175v1l31 30l-31 31v1l31 31l-31 31l31 31l-31 31v1l31 31l-31 30v1h715v-250h-715zM635 252h-28l5 79h-80l4 25h93v7h-126v-7h25l-12 -76h84l-2 -28h-100v-6h137v6zM650 317h19v-57q0 -8 -5 -13l6 -7l3 3l3 3q5 3 11 7t13 9q-1 4 -1 8l-23 -16v70h-26v-7zM663 371
l-6 -4q2 -2 5 -6q12 -12 17 -18l6 6q-3 3 -8.5 9t-13.5 13zM793 298h-48v60h40v8h-90v-8h42v-60h-48v-7h48v-56h8v56h48v7zM786 340l-7 4q-9 -15 -19 -28l7 -5q2 4 7 12q9 12 12 17zM697 340q1 -2 4 -6q4 -7 7 -12.5t6 -10.5l7 5q-7 12 -18 28zM939 344h-58v32h-8v-32h-58
v-64h8v8h50v-54h8v54h49v-8h9v64zM881 336h49v-40h-49v40zM823 336h50v-40h-50v40zM531 323h72l-2 -35h-76z" />
    <glyph glyph-name="uniE652" unicode="&#xe652;" 
d="M775 727v-931h-1l-65 65l-65 -65h-1l-65 65l-64 -65h-2l-65 65l-64 -65h-2l-65 65l-64 -65h-1v1004h524l29 -73h-29zM378 70l6 -3q2 -1 3 -3q65 65 87 157v15h-91v-15h74q-17 -81 -83 -147q1 -2 4 -4zM424 491q-12 4 -14 6q-13 -58 -28 -103l16 -5q0 2 0.5 4.5t1.5 6.5
l2 6q1 4 2 9t3 10q12 47 17 66v0zM375 562q3 -2 7 -5t9.5 -7.5t11.5 -9.5q11 -9 14 -12l11 12q-1 1 -4.5 3.5t-8.5 6.5q-23 17 -30 23zM405 641q-5 4 -7 6l-11 -10h1l4 -4q26 -22 34 -31l11 12q-6 6 -32 27zM428 470q6 -4 11 -10q14 13 28 27v-104h15v17h163v10h-83v24h73
v10h-73v25h73v12h-73v25h80v11h-80q0 1 -0.5 2t-1 2.5t-1.5 3.5q-5 12 -7 16l-13 -6q1 -1 2 -4q3 -5 4.5 -8.5t2.5 -5.5h-58l10 16l-14 6q-22 -40 -58 -69v0zM632 542v50h-75v-50h75zM533 542v50h-75v-50h75zM647 632h-61v21h-14v-21h-54v21h-15v-21h-55v-12h55v-16h15v16
h54v-16h14v16h61v12zM557 182q36 28 70 63l-12 12q-20 -21 -36 -36.5t-29 -25.5q-6 11 -14 28t-17 39v43h-16v-228q1 -11 -5 -16.5t-18 -5.5h-35q2 -3 2.5 -7t1.5 -9h35q36 2 35 37v151q37 -98 118 -159q7 5 14 12q-30 21 -53.5 46.5t-40.5 55.5v0zM519 553h-47v28h47v-28z
M618 553h-48v28h48v-28zM548 481h-66v25h66v-25zM548 444h-66v25h66v-25zM548 410h-66v24h66v-24z" />
    <glyph glyph-name="uniE653" unicode="&#xe653;" 
d="M946 405q-6 18 -24 21l-263 40l-118 252q-8 18 -28 18t-28 -18l-119 -251l-264 -40q-19 -3 -24.5 -21t7.5 -31l191 -197l-46 -277q-3 -19 13 -30.5t33 -1.5l235 129l235 -130l4 -2q2 -1 4 -1.5t4 -0.5h3q5 0 9.5 1.5t8.5 4.5q16 11 13 30l-45 277l192 196q13 14 7 32z
" />
    <glyph glyph-name="uniE654" unicode="&#xe654;" 
d="M512 -125q-104 0 -198 40.5t-162 108.5t-108.5 162t-40.5 198t40.5 198t108.5 162t162 108.5t198 40.5t198 -40.5t162 -108.5t108.5 -162t40.5 -198q0 -52 -10.5 -102.5t-29.5 -95.5t-47 -86.5t-62 -75.5t-75.5 -62t-86.5 -47t-95.5 -29.5t-102.5 -10.5zM806 497
q0 28 -20 48t-48 20h-66l31 31l2 2l2 2l9 8l-3 2q3 7 3 12q0 14 -10 23.5t-24 9.5q-5 0 -11 -2l-3 2l-8 -8l-4 -4l-78 -78h-131l-92 92l-3 -3q-2 0 -3 0.5t-3 0.5h-4q-9 0 -17 -4.5t-12.5 -12t-4.5 -16.5q0 -4 2 -10l-3 -3l44 -44h-65q-14 0 -26.5 -5.5t-21.5 -14.5
t-14.5 -21.5t-5.5 -26.5v-294q0 -28 20 -48t48 -20h452q28 0 48 20t20 48v294zM467 248v204v0l158 -102l-158 -102v0z" />
    <glyph glyph-name="uniE655" unicode="&#xe655;" 
d="M111 -9q-26 0 -44 18.5t-18 43.5v680q0 26 18 44t44 18h75q2 0 4.5 0.5t4.5 1.5t3.5 2.5t3 3.5t2.5 4t1.5 4t0.5 5q0 8 -6 14t-14 6h-75q-43 0 -73 -30t-30 -73v-680q0 -42 30 -72t73 -30h298l-41 41zM816 733q0 28 -13.5 52t-37.5 37.5t-51 13.5h-75q-4 0 -8 -1.5
t-6.5 -4.5t-4 -6.5t-1.5 -7.5q0 -6 2.5 -10.5t7 -7.5t10.5 -3h75q25 0 43 -18t18 -44v-159l41 -41v200zM614 716h-404q-9 0 -17.5 -3.5t-14.5 -10t-10 -15t-4 -17.5q0 -19 13.5 -32.5t32.5 -13.5h404q19 0 32.5 13.5t13.5 32.5t-13.5 32.5t-32.5 13.5v0zM535 816
q0 20 -10 37t-26.5 26.5t-36.5 9.5h-99q-31 0 -52.5 -21.5t-21.5 -51.5v-105h246v105zM412 751q-13 0 -24 6.5t-18 17.5t-7 24q0 21 14.5 35t34.5 14t34.5 -14t14.5 -34.5t-14.5 -34.5t-34.5 -14v0zM639 513q0 -9 -15 -16t-36 -7h-371q-21 0 -36 7t-15 16q0 6 6.5 11.5
t18.5 8.5t26 3h371q21 0 36 -7t15 -16v0zM639 324q0 -7 -7 -12t-18.5 -8t-25.5 -3h-371q-21 0 -36 6.5t-15 16.5q0 2 1 4t3 4t4.5 4t6 3.5t7.5 3t8.5 2t10 1t10.5 0.5h371q21 0 36 -6.5t15 -15.5v0zM596 134q0 -4 4 -10.5t2 -9t-14 -2.5h-371q-21 0 -36 6.5t-15 15.5
q0 10 15 16.5t36 6.5h371q10 0 13 -2t1.5 -4.5t-4 -7.5t-2.5 -9v0zM859 263q17 4 37 10q3 1 7 2.5t8 2.5l8 2l8 2q16 5 26 9l-10 -40q-5 -17 -9 -25q-3 -11 -7.5 -20.5t-9.5 -17.5q-11 -18 -20 -31q-5 -7 -10.5 -14t-11.5 -14l-93 -28l77 -13q-8 -7 -16.5 -13.5t-16.5 -13.5
q-16 -12 -35 -24q-19 -13 -40 -23q-7 -4 -14.5 -6t-16 -3.5t-17.5 -1.5q-26 0 -49 3q-28 4 -55 13q4 7 8.5 14t9.5 15q10 16 21 32q11 18 24 42q35 59 71 120q17 30 32.5 56.5t28.5 50.5q31 54 60 105q-35 -41 -75 -92q-11 -14 -23.5 -30.5t-25.5 -34.5t-27 -38
q-21 -30 -42 -62.5t-43 -67.5q-8 -12 -20 -33q-2 -3 -4 -6.5t-4 -6.5t-4 -7l-4 -6l-4 -8l-4 -6q-17 -30 -26 -44q-5 -8 -9 -15t-8.5 -14.5t-8.5 -14.5q-16 -25 -31.5 -50.5t-30.5 -52.5q0 6 0.5 12t2 13.5t3.5 15.5q4 21 15 53t30 75q5 10 8.5 17.5t6.5 14t5 11.5
q8 17 11 23q3 10 6 13q-4 4 -2 18q2 12 9 35t25 65q17 42 45 91q29 49 64 97q36 48 78 93.5t85.5 80t87 57t84.5 25.5q1 -27 -5 -70q-3 -21 -7 -44.5t-9 -48.5q-8 -48 -20 -101q-4 -17 -7.5 -33t-7 -31t-7.5 -29zM859 263z" />
    <glyph glyph-name="uniE656" unicode="&#xe656;" 
d="M105 393q-9 -2 -7 -11q1 -3 1.5 -7t1.5 -7q1 -7 8 -7h2q9 2 7 11q-1 3 -1.5 6.5t-1.5 6.5q-1 9 -10 8zM408 696q9 0 9 9q0 3 -2.5 6t-6.5 3q-63 0 -120 -22t-101.5 -62.5t-68.5 -92.5t-24 -110q0 -9 9 -9q3 0 6 3t3 6q0 111 86.5 190t209.5 79zM563 139
q-36 -15 -74 -22.5t-77 -7.5q-6 0 -12 0.5t-12 0.5t-12.5 0.5t-12.5 1.5q-4 1 -9 -0.5t-9 -4.5l-101 -72v87v2q5 20 -13 29q-83 44 -131 119.5t-48 161.5q0 88 48.5 162.5t131 118t180.5 43.5q40 0 79 -7.5t74 -22.5t66.5 -37t57.5 -50q2 -3 5 -5t6 -3t6.5 -1t7 0.5t6.5 2.5
l6 4q5 5 7 11.5t0.5 13.5t-6.5 12q-29 32 -65 57t-76 42.5t-84.5 26.5t-89.5 9q-82 0 -157 -28.5t-134 -81.5q-57 -52 -88 -120q-33 -70 -33 -147q0 -104 57 -192q51 -78 134 -127v-131q0 -7 4 -13.5t10 -9.5q2 -1 4 -1l4 -2h4q4 0 8 1t8 4l134 96q23 -2 45 -2q90 0 171 34
q10 4 14 14t0 20t-14 14t-20 0zM943 543q-79 72 -190.5 72t-190.5 -72q-80 -73 -80 -176.5t80 -176.5q79 -72 190 -72h9l124 -88q7 -5 15 -5q6 0 12 3q14 7 14 23v125q42 32 68 77q14 26 21.5 55t7.5 58q0 104 -80 177zM885 210q-3 -2 -6 -5.5t-4 -7.5t-1 -8v-87l-89 64
q-3 1 -5 2l-6 2q-2 1 -5 1h-1q-3 -1 -6 -1h-4h-6q-90 0 -154 57.5t-64 139t64 139t154 57.5q102 0 168 -70q51 -55 51 -127q0 -46 -22.5 -86.5t-63.5 -69.5z" />
    <glyph glyph-name="uniE657" unicode="&#xe657;" 
d="M512 -124q-104 0 -198 40t-162 108.5t-108.5 162.5t-40.5 197q0 102 38.5 194.5t110.5 165t165 110.5t195 38q156 0 285 -87q26 -18 49.5 -38.5t44 -43.5t38 -48.5t32 -52.5t25.5 -56t18.5 -58.5t11.5 -61t4 -62.5q0 -19 -2 -35q-8 -130 -78 -239t-183.5 -171.5
t-244.5 -62.5zM512 829q-89 0 -170.5 -33.5t-144.5 -96.5q-32 -32 -56 -68.5t-40.5 -76t-25.5 -83t-9 -87.5q0 -90 35.5 -172.5t95 -142t142 -95t173.5 -35.5q57 0 112.5 14.5t102.5 41t88 64.5t70.5 84t47.5 100t22 111q1 14 1 30q0 111 -51.5 208.5t-143.5 159.5
q-113 77 -249 77zM131 339q-4 0 -7.5 1.5t-5.5 5t-2 7.5q-2 16 -2 31q0 7 5 11.5t11.5 4.5t11 -4.5t4.5 -11.5t0.5 -14t0.5 -14q1 -7 -3.5 -12t-10.5 -5h-2zM273 84q-5 0 -9 3q-96 71 -132 185q-1 4 -0.5 8t3.5 7t7 4q4 2 8 1t7.5 -4t4.5 -7q33 -103 121 -168q12 -10 3 -23
q-5 -6 -13 -6zM504 172q-13 0 -22.5 9t-9.5 22v155q0 13 9.5 22.5t22.5 9.5q27 0 50.5 9.5t40 25.5t25.5 39.5t9 50.5q0 52 -34 88.5t-84 36.5t-84 -35.5t-34 -88.5v-27q0 -14 -9 -23t-22 -9q-4 0 -7.5 1t-7 2.5t-6 3.5t-4.5 4.5t-4 6t-2.5 7t-0.5 7.5v27q0 78 52.5 132.5
t128.5 54.5t129 -54.5t53 -133.5q0 -72 -44 -123.5t-113 -62.5v-126q0 -5 -1.5 -9.5t-4.5 -8.5t-7 -7t-9 -4.5t-10 -1.5zM535 113.5q0 -12.5 -9 -21.5t-22 -9q-8 0 -15 4t-11 11t-4 15q0 13 9 22t21.5 9t21.5 -9t9 -21.5z" />
    <glyph glyph-name="uniE658" unicode="&#xe658;" 
d="M512 -125q-104 0 -198 40.5t-162 108.5t-108.5 162t-40.5 198t40.5 198t108.5 162t162 108.5t198 40.5t198 -40.5t162 -108.5t108.5 -162t40.5 -198q0 -52 -10.5 -102.5t-29.5 -95.5t-47 -86.5t-62 -75.5t-75.5 -62t-86.5 -47t-95.5 -29.5t-102.5 -10.5zM692 577
q0 42 -29.5 72t-72.5 30h-271q-42 0 -72 -30t-30 -72v-339q0 -21 8 -40t22 -32.5t32.5 -21.5t39.5 -8h115q-11 18 -19 37.5t-12 41.5t-4 45q0 15 2 33h-81q-14 0 -24 10t-10 24t10 24t24 10h102q12 25 28 46h-130q-7 0 -13.5 2.5t-11 7t-7 11t-2.5 13.5q0 14 10 23.5t24 9.5
h216q48 23 100 23q28 0 56 -7v87zM636 429q-70 0 -119.5 -49.5t-49.5 -120t49.5 -120t120 -49.5t120 49.5t49.5 120t-49.5 120t-120.5 49.5zM682 179l-59 34q-8 5 -12 13t-4 17q-5 8 -5 17v67q0 14 10 24t24 10t24 -10t10 -24v-62l46 -27q12 -7 15.5 -20.5t-3.5 -26
t-20.5 -16t-25.5 3.5zM591 520h-271q-10 0 -17.5 4.5t-12 12t-4.5 17.5q0 14 10 24t24 10h271q9 0 17 -4.5t12.5 -12.5t4.5 -17q0 -7 -2.5 -13.5t-7 -11t-11 -7t-13.5 -2.5z" />
    <glyph glyph-name="uniE659" unicode="&#xe659;" 
d="M254 6q0 -53 37.5 -90.5t90.5 -37.5q43 0 77 25.5t46 66.5q-118 36 -224 126q-27 -45 -27 -90zM263 523l24 -24q21 4 56.5 28.5t71.5 55t80 63.5t83 55t79.5 29t69.5 -15q-6 8 -12 13q-21 21 -49.5 25.5t-58 -5.5t-63 -28.5t-64.5 -43t-63.5 -50t-59.5 -47.5t-52 -37.5
t-42 -18.5zM964 810q0 19 -9.5 35.5t-25.5 26t-36 9.5q-27 0 -47.5 -18.5t-22.5 -46.5q-20 13 -41 21t-43 12t-45 4q-44 0 -89 -12.5t-96 -41t-82.5 -48.5t-86.5 -58q-51 -36 -77.5 -53t-62 -34t-57.5 -17t-38.5 -10.5t-24.5 -30.5q-16 -40 2.5 -111t64.5 -149t104 -136
q49 -49 113 -90t128 -65t111 -24q16 0 29.5 3t24 9t17.5 14.5t11 20t4 24.5q0 22 16.5 57t34 61.5t52.5 77.5q24 34 36 52t34 52.5t33 56.5t26.5 55.5t21 58t9.5 56.5t-0.5 58t-16 55t-30.5 56q25 4 42 24t17 46zM854 810q0 11 5.5 20t14.5 14t19 5q8 0 15.5 -3t12.5 -8.5
t8 -12.5t3 -15q0 -5 -1 -9t-3 -8t-4.5 -7.5t-6 -6t-7 -4.5t-8 -3t-9.5 -1q-12 0 -23 7q-3 4 -7 7q-9 11 -9 25zM753 267q-40 -56 -58.5 -85t-36 -69t-17.5 -69q0 -5 -1 -7.5t-4 -7t-11.5 -6.5t-21.5 -2q-28 0 -67.5 12t-82 33t-87.5 52.5t-81 67.5q-83 83 -130.5 192
t-30.5 151q5 12 19 12q30 0 69.5 18t68.5 36.5t86 57.5q42 29 64.5 44t63 39.5t69 37t64 22t66.5 9.5q27 0 52.5 -7t48.5 -21.5t45 -35.5q23 -23 37.5 -49t21.5 -50t5 -53.5t-6 -52t-18 -55t-24.5 -53.5t-32.5 -55t-34 -52.5t-36 -53.5z" />
    <glyph glyph-name="uniE65A" unicode="&#xe65a;" 
d="M784 -20h-533q-11 0 -18.5 8t-7.5 19t7.5 19t18.5 8h533q11 0 18.5 -8t7.5 -19t-7.5 -19t-18.5 -8zM890 779q-11 0 -19 -8t-8 -19v-798q0 -7 -3.5 -13.5t-9.5 -10t-13 -3.5h-586q-33 0 -56.5 23.5t-23.5 56.5t23.5 56.5t56.5 23.5h479q22 0 40.5 10.5t29 29t10.5 40.5
v638q0 33 -23.5 56.5t-56.5 23.5h-532q-11 0 -21.5 -3t-19 -8t-16 -12.5t-12.5 -16t-8 -19t-3 -21.5v-798q0 -55 39 -94t94 -39h586q16 0 31 6.5t25.5 17t17 25.5t6.5 31v798q0 11 -8 19t-19 8zM198 832h532q11 0 19 -8t8 -19v-638q0 -11 -8 -19t-19 -8h-479q-44 0 -80 -27
v692q0 6 2.5 11t6 8.5t8.5 5.5t10 2z" />
    <glyph glyph-name="uniE65B" unicode="&#xe65b;" 
d="M404 -80q-3 0 -7 1q-74 21 -148 52q-160 70 -160 146q0 47 55 84q38 24 101 45q54 17 118 30v52q-59 62 -86 138q-27 75 -27 177q0 118 60 183t169 65q29 0 55 -5t49 -15t42.5 -25t35.5 -34q59 -72 59 -184q0 -27 -3.5 -54.5t-9.5 -48.5t-13.5 -41t-14.5 -33t-14 -24.5
t-10 -15.5t-5 -6q-7 -9 -19 -10.5t-21 6t-10 19t6 20.5q15 19 29 51q29 65 29 137q0 14 -1 27.5t-5.5 35t-12 40t-21.5 38t-33 34t-48 23.5t-64 9q-45 0 -78.5 -13.5t-54.5 -39.5q-20 -24 -30 -59t-10 -80q0 -64 11 -113.5t34 -91t60 -78.5q9 -9 9 -20v-88q0 -10 -7 -18
t-17 -10q-8 -1 -21.5 -3.5t-48.5 -10.5t-64 -18q-41 -13 -68.5 -27.5t-38 -26t-10.5 -21.5q0 -16 31 -41t95 -53q70 -30 141 -49q11 -3 17 -13.5t3 -21.5q-6 -21 -28 -21v0zM701 -66h-15q-7 0 -14 1l-14 2l-102 -62v102q-42 29 -66 71.5t-24 90.5q0 56 31.5 103t85.5 74.5
t118 27.5t118 -27.5t85 -74.5t31 -103q0 -85 -68.5 -145t-165.5 -60v0zM701 300q-79 0 -134.5 -48t-55.5 -116q0 -43 23 -79t63 -59v-61l26 17h-1l34 23q23 -5 45 -5q78 0 134 48t56 116t-56 116t-134 48v0zM818 110q-11 0 -19 7.5t-8 19.5q0 7 3.5 13.5t10 10t13.5 3.5
q11 0 19 -8t8 -19.5t-8 -19t-19 -7.5v0zM710 110q-11 0 -19 7.5t-8 19.5q0 5 2 10t5.5 8.5t8.5 6t11 2.5q11 0 19 -8t8 -19q0 -4 -1 -7.5t-3 -6.5t-4.5 -5.5t-5 -4t-6.5 -2.5t-7 -1v0zM601 110q-11 0 -19 7.5t-8 19t8 19.5t19 8q8 0 14 -3.5t10 -10t4 -13.5q0 -6 -2.5 -11
t-6 -8.5t-8.5 -5.5t-11 -2v0zM601 110z" />
    <glyph glyph-name="uniE65C" unicode="&#xe65c;" 
d="M990 736q-1 0 -3 0.5t-3 0.5h-4q-3 0 -6 0.5t-6 0.5h-8h-8h-9q-53 0 -123 -11t-153 -40q57 33 125 52.5t94.5 23t40.5 3.5q8 1 14 7t5 14q0 6 -3 10.5t-7.5 7t-10.5 2.5q-8 -1 -21 -2t-48 -7.5t-69.5 -16t-80.5 -29.5t-87 -46q31 29 70 53t70.5 37.5t64.5 24t45 13.5
t19 4q4 1 7.5 3t5.5 5.5t3 7.5t0 8q-1 8 -8 12.5t-15 3.5q-14 -3 -34 -8t-70 -23.5t-93.5 -42.5t-91 -68t-75.5 -96q-27 52 -74.5 95.5t-91 68t-93.5 43t-70 23.5t-33 7q-9 2 -15.5 -3t-8.5 -13q-1 -5 1 -10t6 -8.5t9 -4.5q7 -1 19 -4t45 -14t64.5 -24.5t71 -37.5t69.5 -52
q-40 26 -86 45.5t-80.5 29.5t-69.5 16t-48.5 7.5t-21.5 1.5q-6 0 -10.5 -2.5t-7.5 -7t-3 -9.5q-1 -9 5 -15t14 -6q15 -1 41.5 -4t94.5 -23t125 -52q-84 29 -154 40t-123 11q-13 0 -24.5 -0.5t-16 -1t-6.5 -1.5q-12 -1 -19.5 -10.5t-6.5 -21.5l50 -667q1 -12 9.5 -20t19.5 -8
q51 -2 100.5 -10t87 -18t74 -24t59.5 -24.5t44 -23t27 -16.5l9 -6q8 -7 18 -7q8 0 14 4q4 1 7 5q15 10 40 23.5t76.5 37t126.5 40t156 19.5q12 1 20 9t9 19l50 668q1 12 -6.5 21t-19.5 11v0zM506 -69q-60 34 -170.5 69.5t-232.5 42.5l-50 667h9q3 0 5 0.5t4 0.5h4
q200 0 431 -116v-664zM922 45q-218 -14 -392 -112v661q92 46 183.5 74t145 35t101.5 7h21l-50 -665h-9zM908 67z" />
  </font>
</defs>
</svg>
